<?xml version="1.0" standalone="no"?>
<!DOCTYPE svg PUBLIC "-//W3C//DTD SVG 1.1//EN" "http://www.w3.org/Graphics/SVG/1.1/DTD/svg11.dtd" >
<svg xmlns="http://www.w3.org/2000/svg">
<metadata></metadata>
<defs>
<font id="nunanunong_demoregular" horiz-adv-x="1731" >
<font-face units-per-em="2048" ascent="1638" descent="-410" />
<missing-glyph horiz-adv-x="899" />
<glyph horiz-adv-x="0" />
<glyph unicode="&#xd;" horiz-adv-x="508" />
<glyph unicode=" "  horiz-adv-x="899" />
<glyph unicode="&#x09;" horiz-adv-x="899" />
<glyph unicode="&#xa0;" horiz-adv-x="899" />
<glyph unicode="!" horiz-adv-x="978" d="M291 91q35 -146 97 -146q139 0 180 118q7 3 28 69q-14 23 -14 42h7q0 85 -56 138h-62l-21 14h-7q-21 0 -83 -48q-62 -70 -62 -83v-28q0 -29 -7 -76zM382 464l246 254q162 635 229 1074l28 301l-147 30l-81 -31l-207 -139q-50 -313 -68 -1489z" />
<glyph unicode="&#x22;" horiz-adv-x="767" />
<glyph unicode="#" horiz-adv-x="1297" />
<glyph unicode="$" horiz-adv-x="1282" />
<glyph unicode="%" horiz-adv-x="834" />
<glyph unicode="&#x26;" horiz-adv-x="1251" />
<glyph unicode="'" horiz-adv-x="978" d="M286 1301l253 92q213 337 309 583l56 171l-133 53h-78l-167 -43q-78 -173 -240 -856z" />
<glyph unicode="(" horiz-adv-x="689" />
<glyph unicode=")" horiz-adv-x="605" />
<glyph unicode="*" horiz-adv-x="2397" />
<glyph unicode="+" horiz-adv-x="874" />
<glyph unicode="," horiz-adv-x="994" d="M109 -452l253 92q213 337 309 583l56 171l-133 53h-78l-167 -43q-78 -173 -240 -856z" />
<glyph unicode="-" horiz-adv-x="804" />
<glyph unicode="." horiz-adv-x="967" d="M291 129q56 -184 154 -184q221 0 285 149q13 4 44 88q-21 29 -21 53h11q0 107 -88 175h-99l-34 17h-10q-35 0 -132 -61q-99 -89 -99 -105v-35q0 -37 -11 -97z" />
<glyph unicode="/" horiz-adv-x="1127" />
<glyph unicode="0" horiz-adv-x="667" />
<glyph unicode="1" horiz-adv-x="596" />
<glyph unicode="2" horiz-adv-x="867" />
<glyph unicode="3" horiz-adv-x="726" />
<glyph unicode="4" horiz-adv-x="769" />
<glyph unicode="5" horiz-adv-x="792" />
<glyph unicode="6" horiz-adv-x="715" />
<glyph unicode="7" horiz-adv-x="699" />
<glyph unicode="8" horiz-adv-x="639" />
<glyph unicode="9" horiz-adv-x="721" />
<glyph unicode=":" horiz-adv-x="437" />
<glyph unicode=";" horiz-adv-x="469" />
<glyph unicode="&#x3c;" horiz-adv-x="959" />
<glyph unicode="=" horiz-adv-x="1044" />
<glyph unicode="&#x3e;" horiz-adv-x="938" />
<glyph unicode="?" horiz-adv-x="648" />
<glyph unicode="@" horiz-adv-x="1700" />
<glyph unicode="A" horiz-adv-x="1843" d="M-70 -16q12 0 31 184l91 421l12 6l-6 12q61 178 67 244q29 0 55 153q41 62 73 213q25 96 110 342q0 26 30.5 121t61.5 233l-6 12v7q0 9 36 24q39 -8 68 -18q11 6 18 6q43 -19 49 -19q33 7 49 7q129 -18 221 -28q17 -2 43 -1q120 0 444 35l12 -6q54 6 67 6q61 0 61 -165 l-12 -37q12 -2 12 -12v-110q0 -6 6 -6l-18 -37l18 -85q0 -6 -6 -6q28 -275 43 -275q0 -6 -6 -6q22 -160 54 -244q0 -79 55 -293h-6q25 -61 67 -299q4 0 19 -49l-6 -30q36 -153 36 -190v-55q17 -23 25 -61q-6 0 -6 -6h6q-6 -30 -25 -30q-10 0 -73 6q-4 30 -18 30h-55 q-106 25 -116 25l-43 -12l-49 12l-122 -12l-30 6q-155 -43 -177 -43h-43q-46 0 -79 323q-23 36 -37 104q6 11 6 25q-34 18 -49 18q-55 0 -55 -49h6l-36 -134q18 -49 18 -61q-16 -31 -36 -196q-31 -48 -68 -48l-18 12l-73 -18l-12 6h-74l-42 6v-6q-12 6 -19 6q-19 0 -85 -12 q-46 12 -55 12q-58 -19 -61 -19q-7 0 -18 7q-33 -7 -55 -7h-31q-6 0 -6 -6l-12 6l-104 -18q-12 6 -18 6q-9 0 -55 -12q-49 0 -49 85z" />
<glyph unicode="B" horiz-adv-x="1338" d="M57 41q29 52 29 75l-6 51h6q-6 18 -12 18l6 28v6q0 6 -6 6l6 11v29q0 71 -6 173l6 28q-6 21 -6 58l6 23l-6 11l6 29q0 4 -6 35q12 49 12 63q-6 10 -6 23q12 0 12 11l-12 23l6 29q0 14 -12 63l6 12q-6 31 -6 52v11l6 35l-6 11q6 11 6 18l-11 57l11 75l-6 29q12 142 23 224 l-5 11q5 11 11 58q0 6 -6 6q0 6 6 17q-6 63 -6 109v6l6 34q-6 9 -6 35l6 11l-17 87q0 7 6 57q0 9 -29 63q27 52 144 52q5 0 5 -6q30 6 127 12l11 -6q57 16 156 29q5 0 57 -12q29 0 29 12q57 -6 86 -6h98l17 -11q6 0 17 5q173 -24 173 -51q20 0 58 -35q58 -22 115 -132 q19 0 46 -161v-29l-6 -34l11 -29l-11 -29l6 -34q0 -70 -87 -225q-97 -88 -178 -120q-29 -26 -29 -29v-6q2 -11 12 -11h34q127 -22 179 -70q155 -169 155 -293q0 -6 -6 -6l6 -28q0 -157 -75 -345q-52 -41 -52 -64q-114 -138 -391 -207l-11 6h-6q-13 0 -23 -6l-12 6 q-126 -8 -126 -17q-11 6 -17 6l-12 -6l-29 11q-19 -11 -57 -17q-32 6 -46 6q-4 0 -35 -6q-21 12 -46 12v-6q-66 23 -115 23h-28q-28 0 -58 -6q-82 0 -92 52z" />
<glyph unicode="C" horiz-adv-x="1804" d="M0 681l13 144l-6 13l19 46q0 5 -6 40q3 50 26 78v27q0 73 66 236q52 183 229 387q104 58 125 79q88 69 210 112q49 43 210 92l14 -7h6q15 12 59 20l40 -7q80 20 111 20q13 -7 20 -7q13 7 20 7q28 -29 197 -59q14 -20 137 -66q0 -5 40 -33l59 27q32 0 59 -53l-7 -39h7 q-92 -167 -92 -217q-4 0 -13 -20l7 -13v-6l-33 -40l6 -33l-33 -19l7 -13q0 -20 -46 -119q-7 -124 -52 -124h-14q-78 26 -85 26q-168 0 -223 -151q-13 -1 -20 -46q0 -7 7 -20q-33 -74 -33 -105q6 0 46 -105q157 -148 354 -171h27q38 0 105 7q12 -7 19 -7l92 27q65 0 73 -86 q-7 -57 -7 -65q7 -20 13 -20q-6 -77 -6 -112v-137q0 -7 -7 -7l7 -13q-20 -26 -20 -40q46 -22 46 -32v-33q-173 -29 -237 -53l-26 7q-54 -20 -217 -53q-2 -13 -32 -26l-46 20q-67 -7 -105 -7h-66l-39 7q-13 -7 -20 -7l-46 7q-58 -7 -66 -7q-16 0 -92 13l-13 -6q-35 6 -59 6 v-6q-363 83 -505 243q-61 54 -79 124q-46 0 -118 322v13l6 13z" />
<glyph unicode="D" horiz-adv-x="1602" d="M42 83l7 36q0 63 8 285l-8 30l37 255h-7l7 15v22q0 30 -7 58q7 29 7 59v15q0 7 -7 7q7 12 21 131q0 11 -14 66q14 55 14 59q-5 43 -14 43l7 15v44q0 74 -7 183l7 36q-7 40 -7 59l7 65l-7 44q0 8 7 22l-7 51q0 25 7 212q-7 22 -14 22q0 44 175 44h29q429 -29 482 -66 q169 -42 169 -66q3 0 29 8q37 0 80 -66q164 -90 387 -336q10 -29 103 -183q0 -20 36 -146l-7 -15q9 -82 22 -102q0 -15 -7 -15l7 -87v-29q0 -296 -183 -556q-214 -248 -336 -248l-80 -37l-66 15q-255 -69 -314 -95h-15l-15 7q0 -10 -43 -29l-15 7q-79 0 -234 -51 q-29 15 -51 15l-29 -8q-22 8 -22 15l-15 -7h-7q-64 0 -110 95l8 36q-5 66 -15 66z" />
<glyph unicode="E" horiz-adv-x="1641" d="M-10 -95q37 13 37 100q13 165 25 261h-6l6 12v19q0 6 -6 6q12 41 19 218q-7 12 -7 18q7 38 13 38q-6 98 -19 143l19 31v49l18 137h-6q25 137 38 292q6 0 6 13q0 6 -6 6q0 12 24 112q-6 12 -6 19l13 25l-7 31q0 195 56 348q13 0 13 12v6h-19q0 -14 -25 -24h-12 q-13 0 -19 62q0 28 81 37q25 -6 44 -6q105 6 105 18q12 -6 19 -6q6 0 6 6l31 -6h13l273 31q24 -6 50 -6q16 0 50 6q18 -6 18 -12l13 6h124q14 0 25 6q8 -4 87 -12l31 6l25 -6l100 12q32 -6 37 -6q68 5 68 13l25 -7q48 0 124 13l13 -6l31 12q53 -6 87 -6h25q12 -2 12 -13 q0 -36 -43 -124l-56 -236q18 -31 18 -44q-13 0 -24 -62q12 -20 12 -37q-12 -45 -12 -50q0 -6 6 -6q0 -6 -6 -6q0 -7 6 -19q-6 -44 -6 -50q12 -39 12 -43q-19 -63 -62 -63l-69 19q-225 -25 -335 -50h-44q-25 -12 -25 -18q-7 0 -62 6q-113 -6 -143 -6q-23 -26 -37 -112 q15 -13 25 -13q180 8 180 19q12 -6 19 -6q64 18 99 18q100 -4 100 -12l12 6q6 0 50 -6l12 6q94 -19 100 -43v-6l-38 -131v-75q0 -52 -68 -93h-118q-56 -25 -274 -43v-7l-12 7h-19q-27 -15 -31 -32q6 0 6 -6q-12 0 -18 -50h6q-13 -24 -13 -43q7 -34 7 -50h18q185 38 255 38 q12 -7 19 -7q36 19 62 19l25 -6q20 12 37 12h19q36 0 99 6q12 -6 19 -6v6l37 -18h7l37 18q81 -6 130 -6h19q10 0 25 -43q0 -12 -112 -131q-56 -113 -56 -267q31 -18 31 -38q0 -10 -81 -80h-24q-19 16 -94 37h-12l-13 -6q0 9 -18 18h-75q-12 0 -12 13q-80 -6 -94 -13 q-33 7 -56 7h-24q-17 0 -38 -13q-31 13 -43 13q-50 -9 -50 -19l-12 6l-137 -6q-84 -13 -106 -13h-6l-25 19q0 -16 -56 -31l-43 6q-19 -6 -19 -12l-13 6q-62 -20 -122 -22.5t-83 -2.5q-2 -13 -130 -50q0 -12 -13 -12h-37q-48 0 -56 25v6z" />
<glyph unicode="F" horiz-adv-x="1450" d="M34 223q26 43 26 65q0 19 -7 19q7 65 7 97v104q0 76 6 155q-6 29 -6 104h6l-6 13v45q0 27 6 71l-6 13q58 601 116 750q36 115 52 136q0 5 -32 33v19q476 97 569 97q23 0 136 13q20 0 149 -26q58 7 58 13l13 -6q44 0 78 6l129 -19l13 6q140 0 175 -65l-7 -38q7 -13 7 -20 q-13 -46 -13 -71q0 -7 6 -19l-6 -39v-26q0 -7 6 -7q-8 -46 -26 -64q13 -2 13 -13q-6 -36 -6 -52h6q-9 -65 -19 -65l6 -64q0 -130 -77 -130q-23 -6 -26 -6q-72 13 -266 32l-58 -6l-45 6q-155 -19 -155 -77q-20 -50 -20 -91v-32q20 0 20 -7q117 20 148 20h20l39 -7l13 7 q90 -18 90 -72l-32 -161l6 -13q0 -13 -13 -46l7 -13l-7 -38v-13q0 -7 7 -7q0 -16 -45 -45q-7 0 -7 6q-69 -6 -84 -12q-14 5 -71 12q-13 -6 -20 -6l-32 6q-49 0 -65 -90q-6 0 -6 -7q2 -13 13 -13q-20 -17 -39 -200q13 -2 13 -13v-39q5 -56 19 -58l-6 -13l19 -65l-6 -13 q26 -84 64 -84q65 -40 65 -58q-67 -22 -97 -58q-18 0 -32 -20q-101 39 -130 39q-158 -19 -232 -19q-7 0 -20 6q-50 -24 -336 -45q-16 0 -52 19l6 46v39q0 45 -13 45q9 79 13 90q-19 30 -19 39z" />
<glyph unicode="G" horiz-adv-x="1594" d="M25 959q37 357 94 357q101 232 155 263q184 210 364 262q166 115 391 115l323 -88q41 -40 41 -53l-7 -48q10 -52 27 -74l-7 -13l39 -280l-20 -13h-27q-16 0 -128 27q-15 0 -27 -7q-36 7 -74 7q-143 -6 -263 -157l-76 -145q-21 0 -27 -231q81 -466 306 -488l-82 341 l-70 183l138 66l205 11l226 -62l10 -9q10 -8 28 -240q13 0 13 -34v-47q0 -285 -94 -431h7q-90 -132 -303 -203l-91 7q-72 -13 -94 -13h-67l-41 6q-14 -6 -61 -13q-26 7 -47 7q-7 0 -20 -7q-79 7 -114 20l-14 -7q-172 41 -330 115q-192 181 -202 290q-38 139 -54 175l7 34 q-10 80 -21 80l7 27q0 9 -7 68l7 13q-13 25 -13 54v94q0 7 6 7z" />
<glyph unicode="H" d="M66 351q0 4 6 37q-6 12 -6 18q6 44 6 74q0 6 -6 18q10 78 25 246q0 14 -7 25l13 368l-6 31q6 44 6 74q-19 141 -19 276v31l-6 37q0 6 6 6l-6 43v80l-6 74q0 17 313 55q76 31 154 37q43 -6 74 -6q20 12 37 12h12q27 0 37 -80l-6 -12q0 -7 6 -18q-12 -43 -12 -74v-74 q0 -14 6 -25q-13 -20 -13 -36q7 -19 13 -19l-6 -12v-49l6 -62h-6q6 -18 12 -18q-6 -19 -12 -19q6 -18 12 -18q-6 -12 -6 -19q10 -16 18 -79q-6 -33 -6 -62v-18q0 -9 25 -19q79 0 79 62q-6 12 -6 18q0 159 -18 400q6 52 6 79q-5 25 -12 25q26 117 110 117q262 86 338 86 q12 -6 19 -6q57 12 92 12h104q191 -24 191 -43q37 -20 37 -61l-13 -56q13 -2 13 -12l-6 -43q6 -34 6 -49h-6l6 -13q0 -16 -13 -36l13 -7l-13 -73l7 -25q0 -6 -7 -18q7 -63 7 -99v-24q0 -6 6 -6q-6 -13 -13 -68q7 -12 7 -18l-19 -37v-92l-12 -19v-43q0 -6 6 -6l-25 -86 q0 -7 7 -18q-7 -11 -7 -25v-6l13 -19v-24q-16 -23 -37 -68l12 -24h-6q0 -7 6 -7l-18 -67l6 -31q-14 0 -19 -31q0 -30 13 -30q-24 -49 -37 -123h6q-6 -12 -6 -19l6 -12l-6 -12q6 -33 6 -56v-12q-17 0 -25 -67l13 -56q-6 -9 -13 -67q7 -11 7 -25q-9 0 -19 -18q12 -25 12 -43 l-18 -13l6 -24q-12 -39 -12 -43l6 -31l-6 -37q6 0 6 -6q-17 0 -37 -74l-25 -12q-21 0 -98 74h-24q-58 0 -93 -25q-4 0 -36 6q-13 -10 -99 -18l-31 6l-135 -12q-78 0 -110 86q0 8 18 61h-6l12 49q-6 34 -6 56q0 25 6 67l-6 31q0 5 6 37l-18 74q18 27 24 86l-6 37q0 6 6 6 l-6 24q6 114 19 154l-6 37v55q-14 0 -25 6q-154 -27 -154 -61l-18 -80v-6q2 -13 12 -13l-6 -12v-31q0 -13 6 -24l-6 -12q11 -44 25 -154l-6 -12q12 -47 12 -86v-7q0 -6 -6 -6q6 -55 12 -55l-18 -43q6 -12 6 -18l-6 -25q6 -18 12 -18l-43 -160q-91 -25 -326 -62q-12 6 -18 6 q-91 -18 -142 -18q-55 18 -55 55q6 0 6 6q-27 0 -31 142q-8 0 -12 49q0 6 6 6q-12 69 -12 160z" />
<glyph unicode="I" horiz-adv-x="1697" d="M46 1364v6l13 19q-5 38 -13 38q6 35 25 57v57l13 19q-13 21 -13 32h7l-7 12q0 19 7 19l-7 32q0 12 13 70q0 44 -13 44q10 69 19 89l-6 38v6q4 15 44 32q28 -9 51 -26q124 7 342 38l13 -6h12q144 32 412 32l12 6l13 -6q5 0 38 6q44 0 44 -13q13 7 19 7q7 0 7 -7l38 7 q37 0 272 -26q29 13 57 13q40 -13 51 -13v7q20 -13 31 -13v6q114 -31 114 -82q0 -19 -13 -44q0 -45 32 -203q0 -19 44 -209q13 -61 13 -69q0 -33 -19 -38q-80 6 -95 6v-6q-19 6 -19 12q-48 0 -76 -31q-49 9 -69 25l-64 -6h-44l-32 -7v7q-12 -7 -19 -7l-12 7q-51 -17 -51 -32 q0 -26 6 -70l-6 -12l6 -38q0 -13 -31 -127l25 -44v-26q-76 -31 -108 -418l7 -25q-7 -24 -7 -51v-6q4 -19 292 -88q25 6 44 6q76 -23 76 -38l-6 -13l6 -38q-21 -106 -44 -164q6 -34 6 -38q-20 -95 -57 -95q-133 4 -133 19l-13 -7h-12q-7 0 -7 7l-12 -7h-32q-54 0 -82 -12 q-44 6 -70 6q-151 0 -190 -25l-32 6q-20 -11 -158 -25q0 -13 -19 -13l-108 25l-12 -6l-89 13q-57 -7 -57 -13l-31 6h-108q-6 0 -6 -6l-13 6l-63 -6q-127 0 -127 76q0 25 -13 25q45 349 89 349l38 6q145 -25 241 -57h82q97 26 101 51q13 177 13 221q-10 0 -26 25 q51 27 51 463q6 0 6 25q0 6 -6 6q0 22 32 159q0 50 -120 50q0 7 -26 7l-31 -7q0 13 -13 13q-17 0 -38 -13l-44 7q-57 -4 -57 -13l-13 6q-169 -21 -209 -38q-76 38 -76 51z" />
<glyph unicode="J" horiz-adv-x="1961" d="M74 693q0 20 244 112q0 6 17 6q31 -7 61.5 -156t115.5 -229q65 -61 147 -61q27 0 55 6q116 26 161 177l6 165q-5 9 -5 22q14 0 28 136q-6 9 -6 28h6l-34 158q6 67 6 96q0 48 -17 119h6q-43 107 -98 107q-29 0 -85 6q19 -6 13 -6l-11 6l-236 -25l-11 5q-21 -11 -45 -11 q-170 20 -170 68q0 28 -54 154q-44 105 -44 187q0 16 2 32l-11 73q0 51 39 51h29q28 -1 28 -11q6 0 6 5q175 4 290 4q153 0 199 -7q6 0 6 6l56 -6h97q108 0 163 -11q8 0 130 17q12 0 12 -6q31 6 45 6q160 0 282 17q30 -6 34 -6q84 6 113 12q11 -6 17 -6l57 6l22 -6 q24 17 125 17q31 -21 51 -130q-6 -11 -6 -17q17 -27 17 -102v-79q0 -20 -6 -51q6 -8 6 -33l-6 -34l6 -29q-6 -63 -6 -113q0 -27 -28 -45l-68 17v-6l-11 6l-34 -6l-11 6q-77 -7 -91 -11l-34 5h-39l-34 -5q-32 11 -91 11v-6q-10 6 -17 6q-39 -8 -39 -23v-33q0 -15 45 -159 q-6 -11 -6 -17q44 -239 44 -426q0 -122 -19 -222q-48 -253 -192.5 -357t-307.5 -123q-115 -14 -231 -14q-48 0 -97 2q-165 8 -310.5 104t-217.5 256q-60 136 -60 308q0 31 2 63z" />
<glyph unicode="K" horiz-adv-x="1638" d="M0 1879q0 14 36 24q19 -12 35 -12h54l35 6q6 0 6 -6l24 6q14 0 65 -12q0 26 101 29v-5q56 29 65 29l12 -6l53 6l42 -6q47 14 47 18l12 -6q53 12 71 12q36 -30 36 -36v-94q0 -14 6 -24l-12 -30q12 -86 12 -118q0 -7 -6 -18q12 -172 24 -267h-6q12 -24 12 -36h11 q87 86 149 261q23 0 41 65l77 116l2 9l49 110l3 20v12q7 0 41 18q38 -12 42 -12l29 6q20 -12 36 -12h59q6 0 6 -6l12 6h6q41 -2 41 -12l12 6h30q34 0 95 6q46 -16 53 -35v-24q-9 -23 -201 -196q-83 -111 -161 -243q-54 -78 -118 -196q-18 0 -42 -94q-16 0 -29 -66 q-29 -33 -60 -89v-23q0 -48 172 -137q298 -250 327 -290q204 -252 219 -326q-17 -47 -113 -89q-31 -37 -201 -107h-18q-100 13 -285 302q-11 0 -71 83q-3 0 -42 36h-5q-14 0 -18 -30h6q-6 -11 -6 -18q35 -154 35 -237l-6 -59h6q0 -6 -6 -6q6 -96 18 -125q-11 -47 -24 -47 h-23l-12 6v-6q-36 18 -113 18h-47q-171 29 -320 41q-81 -6 -101 -6q-12 6 -18 6q-12 -6 -18 -6q-77 21 -77 89l-6 24l6 12q-6 11 -6 18l6 12q-6 29 -12 29l6 30q-18 186 -30 213l6 12q-17 63 -17 77l6 42q-12 60 -12 71l6 42q-12 137 -30 177q6 11 6 24q-12 15 -12 24l6 12 l-6 12q6 11 6 17q-24 49 -24 113v53q0 14 -6 24q6 12 6 18q-12 19 -12 30h6q0 6 -6 6l6 41q-12 159 -17 190q5 10 5 24q0 13 -5 23l5 24q-5 108 -5 136q0 30 11 30q-11 69 -11 166v42q-19 38 -42 59z" />
<glyph unicode="L" horiz-adv-x="1753" d="M34 17l13 40q-5 26 -13 26l7 13q0 27 -7 72l20 45l-7 59q0 20 13 52q-6 45 -6 72q0 37 13 72l-7 39l20 46q-7 33 -13 33l6 33q0 193 20 326q-7 13 -7 20q13 0 13 13v39l-6 39q5 26 13 26l-7 14v19q26 33 26 46q0 23 -19 72q6 44 6 72v26q0 6 -13 52q13 0 13 20 q0 26 7 117l-7 26q7 12 7 27q-13 41 -13 52q0 27 6 72q-6 55 -6 91q6 47 6 52q-9 37 -19 53v19q12 0 59 20l124 -13l13 6l39 -6h7q31 0 65 6l39 -6q83 6 92 13l32 -7q75 13 105 13q117 -15 117 -19l14 6q63 0 241 20q13 -27 13 -39q-52 -104 -72 -222q-10 -46 -32 -281v-98 q0 -13 -13 -13q0 -7 6 -20l-6 -33l6 -65q0 -18 -19 -78q6 -33 13 -33q-13 -27 -13 -39q6 -84 13 -92q-13 -21 -13 -39v-33q0 -31 6 -65q-19 -130 -46 -196q0 -36 46 -72l66 7h58q7 0 7 6l13 -6q33 0 33 13l13 -7q20 0 241 46h40l26 -7q52 7 52 13l13 -6h13q42 0 85 6 q7 0 20 -6l148 6l-4 -58h-7q-78 -352 -78 -379v-27l-7 -39q7 -11 7 -26q-18 -52 -66 -52h-98q-46 13 -52 13h-46q-6 0 -52 -13h-13q-24 0 -59 6l-13 -6l-91 13q0 -31 -236 -39l-13 6q-26 -6 -46 -6q-6 0 -6 6q-109 -9 -137 -19q-13 6 -20 6q-122 -13 -157 -13q-6 0 -6 7 q-325 -52 -405 -118h-7q-27 0 -72 7q-11 -7 -26 -7l-13 46h20v19q-20 0 -20 13q7 13 7 20t-7 7l7 32v20q0 6 -7 6z" />
<glyph unicode="M" horiz-adv-x="2075" d="M36 259l18 125l-6 11q7 80 12 95q-6 10 -6 24v17l6 36q0 6 -6 6l6 41v30q0 62 6 130q-12 76 -12 100q17 50 23 136l-6 30q0 6 6 17q-6 41 -6 65q0 35 6 95l-6 12l6 35l-6 36q12 24 12 35q-10 25 -17 47l5 12v47q0 33 12 139l-22 214l403 67q0 -6 6 -6v6q30 0 59 -59 q68 -55 89 -119q89 -100 89 -153q35 -28 222 -336q0 -11 24 -53h24q172 255 296 427q0 78 65 124l-1 5l59 82l2 -5q18 24 28 81q0 71 77 71h6l35 -6q34 18 77 24q19 -12 35 -12q3 0 24 6q84 -32 84 -33.5t-66 21.5l333 -141v-154q0 -25 6 -65q-24 -83 -24 -89q0 -4 6 -35 q-44 -356 -44 -461q0 -35 5 -42q0 -6 6 -6q-33 -229 -33 -337q0 -38 4 -60q9 -49 10 -81q0 -23 -6 -36l6 -35q-1 -31 -1 -60q0 -181 27 -285q0 -23 -167 -47q-70 -10 -168 -11q-137 0 -329 20q-4 205 -4 221v53q8 52 8 159q0 62 -3 143q0 6 -6 17q-25 56 -25 94q0 13 3 25 l20 29q0 12 -12 59q5 36 12 36l-6 41l-20 106l-6 30h-12q-155 -199 -189 -282q-80 -118 -113 -118h-12q0 9 -70 24q-97 171 -164 171q0 6 -6 6l-11 -6h-18q0 -18 12 -83q0 -13 -6 -23q5 -377 94 -639l-123 -97l-325 22l-253 53q-47 146 -47 167q0 2 1 3q-12 36 -12 47z" />
<glyph unicode="N" horiz-adv-x="1652" d="M56 820q12 0 12 13q-6 34 -6 49q12 20 12 37v6q0 31 -18 31v12q31 121 49 277l-12 18v37q24 21 24 43v6q-30 40 -30 62q0 76 49 165l-12 25q6 25 24 25v43q15 98 25 98l-37 80q12 21 154 49v-6q3 0 86 31l12 -6q46 12 61 12q31 0 93 -191q67 -102 215 -430 q153 -217 174 -217h19q0 15 15.5 63.5t43.5 380.5l-13 7l19 86v6q0 6 -6 6l6 12v68q0 6 -6 6l6 12v13q0 33 -6 86q18 73 55 73q0 7 43 13l12 -6h50l18 12h123q14 0 25 6q10 -6 24 -6h37q6 0 6 6q6 0 6 -6l31 6h43q111 -11 111 -49v-6q0 -199 -43 -517l6 -12 q-37 -445 -105 -1002q-71 -363 -92 -363q-49 -18 -61 -18q-70 14 -142 74l-104 135q-24 5 -56 86q-7 1 -177 178l-25 6q-12 -31 -12 -49q0 -4 6 -37q0 -6 -6 -6l12 -135l-6 -12q13 -71 13 -148q-15 -74 -44 -74q-147 5 -147 19l-13 -6q-28 0 -37 6q-42 -6 -68 -6h-67 l-43 -13q-9 0 -56 13q-31 -25 -116 -25q-123 0 -123 49q0 25 -13 43l7 31q0 6 -7 6l7 31q-5 104 -13 104q13 17 19 87q-10 35 -25 135l12 24l-6 31l6 25q-12 58 -12 73q6 51 12 62q-18 81 -18 147z" />
<glyph unicode="O" horiz-adv-x="2127" d="M20 755q6 36 6 52h-6q13 37 13 161q15 5 52 220q48 71 64 155q35 22 84 161q69 160 181 226l155 90q14 0 90 59q22 0 161 58l33 -7h51q70 13 91 26h142q43 -7 45 -19l13 6q197 -39 206 -39v7q54 0 136 -45q0 -12 97 -65q261 -156 297 -297q64 -52 148 -394q7 0 13 -32 q-6 -166 -32 -265v-64q0 -10 -20 -71l7 -13q0 -102 -103 -271q-12 -1 -78 -129q-10 0 -116 -103q-42 0 -52 -33q-190 -97 -458 -142q-140 -26 -168 -26l-13 7q-19 -7 -19 -13q-19 6 -19 13q-7 0 -7 -7q-76 7 -110 7h-97q-182 0 -464 168q0 9 -104 84q-101 113 -135 213 q-31 35 -71 167l6 13q-6 10 -13 71l7 13q-13 30 -13 58z" />
<glyph unicode="P" horiz-adv-x="1661" d="M-30 36v19q29 29 32 71q-6 12 -6 19h6l-6 13v103q0 6 6 6l-6 13q19 18 19 225q0 7 6 7q0 6 -6 6l6 32l-6 13q6 13 6 20l-6 32h6l-6 13v6q2 13 13 13l-7 13v6l7 32q-13 0 -13 13q19 0 19 103q-6 12 -6 19l13 7l-7 25q0 45 13 136l-6 12q27 180 38 180q-6 4 -6 45l19 45 q-6 0 -6 7l13 6q0 7 -7 7q5 83 19 83l-6 13q21 71 26 71l-7 13v6l26 77q-6 12 -6 26q6 0 6 7q-6 0 -6 6q8 0 25 96l-6 13v32q0 7 6 7l-19 71q39 51 142 51q2 13 12 13h7q6 0 6 -6l26 12h19q2 13 13 13q7 0 7 -6q14 6 96 26v-7q21 13 39 13q0 -6 6 -6q2 12 13 12h19l13 -6 q0 14 58 19v-6q71 16 71 26l13 -7h32q6 0 6 7l13 -7h19v13q34 -6 39 -6l58 6v-6l13 6q82 -8 90 -13q6 0 6 7q71 -10 71 -20l13 7q173 -41 173 -65l116 -38q11 -21 52 -39q0 -7 6 -19l13 6h6q108 -75 122 -103h13v-6l-6 -13q30 0 122 -141q0 -32 19 -32l-6 -13q19 -14 38 -65 q0 -6 -6 -6q6 -14 13 -71q-7 0 -7 -6q13 -2 13 -13q0 -16 -25 -64q6 0 6 -7q-13 -2 -13 -13q7 0 19 -6q-12 -75 -25 -90v-32q-15 0 -45 -97q-65 -77 -84 -77h-6l6 -13q-5 -17 -135 -103q-90 -21 -212 -64h-19v-6h-26l-32 6v-26q-35 -6 -58 -6h-26q-13 0 -13 13 q-95 -32 -116 -32l-32 6q-6 0 -6 -6q-72 12 -167 12q-43 0 -58 -135q-12 0 -39 -141l7 -39q0 -13 -13 -13l19 -96q0 -6 -6 -6q13 -75 13 -90q-7 -13 -7 -20q13 -26 13 -38q-13 -2 -13 -13l13 -7q0 -6 -6 -6l6 -64v-20q0 -6 -6 -6l6 -13v-32q-16 0 -32 -13q-7 0 -7 6l-12 -6 q-65 9 -65 19q-12 -6 -19 -6t-7 6l-32 -6h-13q-6 0 -6 6q-6 0 -6 -6q-36 6 -52 6q-6 0 -6 -6l-84 13l-32 -13l-6 13l-13 -7q-6 0 -52 13q-13 0 -13 -6l-45 6h-64q-6 0 -6 7l-33 -13z" />
<glyph unicode="Q" horiz-adv-x="2388" d="M10 1025q6 74 15 74q-8 14 -8 22q10 128 82 229q0 24 37 74q-8 0 -8 7q50 24 89 141q52 59 74 59q0 15 -15 15q26 80 214 199q0 5 45 22h15l14 -7q27 32 215 96q2 -15 14 -15q8 15 8 22h59l37 8v-8l15 8l14 -8q63 23 89 23v-23l15 8q7 0 7 -8q37 8 37 15l15 -7l37 7 q0 -7 7 -7q3 15 15 15h74l37 7v-7l15 7h22q7 0 7 -7q15 7 23 7q118 -27 118 -52q7 0 59 15l7 -15l15 8q142 -25 192 -74q22 0 22 -22h15v14h8q14 -2 14 -14l-7 -15q44 -8 74 -37l15 7q0 -9 96 -88q66 -72 66 -89q0 -15 59 -104l-7 -14l15 7h7v-59q59 -88 59 -126q-7 0 -7 -7 l37 -52l-7 -15q22 -37 22 -51h-8q8 -15 8 -23q0 -7 -8 -7l8 -37v-7q-15 -72 -15 -82q15 -2 15 -14q-8 -53 -8 -60l8 -37h-8l8 -14q0 -13 -15 -45q15 -2 15 -14q0 -8 -8 -8l8 -37v-52q0 -16 -8 -29l8 -15q-30 -177 -59 -177q-30 -48 -30 -74q37 0 37 -45l15 8h7v-15l-7 -15 q47 -34 155 -221q118 -93 118 -148q0 -27 -44 -45l-15 8q0 -9 -155 -37q0 -8 -44 -15l-15 7q-12 -7 -37 -7l7 -15l-37 8q-14 0 -66 -30h-22q-54 -17 -82 -44h-22q0 -15 -15 -15h-7v15l-22 -15q-96 0 -133 67q-96 99 -96 118h-45q-7 0 -7 7q-244 -74 -281 -74v8 q-75 -23 -177 -30q-8 0 -23 7l-44 -7h-7q-11 0 -22 22q-37 -22 -52 -22q-74 4 -74 15l-15 -8q-79 13 -96 30h-22q-17 0 -30 -7q-231 73 -288 118q-14 -7 -22 -7q-13 0 -133 110q-22 0 -44 45q-40 26 -134 184l8 15q-15 0 -30 37h8q-37 90 -82 274q0 6 8 59l-8 103h8l-8 15v7 q0 8 8 8q-8 13 -15 74zM616 1779v7h7q15 -2 15 -15l-15 -7z" />
<glyph unicode="R" horiz-adv-x="1742" d="M56 238q7 14 7 22q-7 12 -7 29h7q0 7 -7 7q14 95 14 159l-7 29h7l-7 14l7 51q0 7 -7 7q7 79 15 79q-8 14 -8 22l8 101l-8 36q13 16 29 202h8q0 8 -8 8q15 130 29 216q0 8 -7 8q26 209 36 209l-7 15l29 252q-29 0 -29 51q45 50 296 130q330 65 462 65v-7q8 0 8 7l50 -7 q16 0 29 7q114 -24 181 -58q0 15 21 15q79 -17 130 -36q0 -16 116 -44v-7l14 7q29 -11 29 -21l15 7q64 -33 101 -94q47 -30 87 -87q52 0 86 -144q10 0 36 -36q-14 -3 -14 -15q14 -2 14 -14h-7q15 -37 15 -51q-15 -2 -15 -14l15 -8l-15 -28q7 -40 7 -58q-8 0 -29 -87 q-7 0 -21 -7v14h-7q0 -13 -22 -65q14 -2 14 -14q-13 0 -36 -44h-21l7 -14q-43 -87 -101 -87q-26 -50 -51 -50h-14v-7h14v-15q-12 0 -36 -22q0 8 -7 8q-19 -56 -188 -101q0 14 -15 14h-7l7 -14q0 -11 -79 -51v7q-190 -72 -209 -72v-15q191 -134 216 -180q198 -140 311 -304 q14 0 14 -28q-21 -29 -43 -29l7 -15q-11 -29 -21 -29h-8q-7 0 -7 8l-94 -29q-14 7 -21 7q0 -15 -73 -22q-12 7 -29 7q-14 -7 -21 -7h-22q0 -16 -51 -29l-43 8h-14v-15h-22l-51 7l8 -14v-7l-36 -8q0 8 -8 8q0 -13 -36 -22l-36 22l-29 -8q-33 0 -208 198q-22 0 -22 22h-7 l-3 -71l-4 49q-20 -165 -68 -187q-7 0 -7 8q-37 -15 -51 -15q-50 0 -186 54l-36 -7v22h-7v-15l-29 7q-14 -7 -22 -7q0 15 -14 15l-8 -15l-14 7h-7q-53 -65 -65 -65q-50 17 -80 51v123q0 40 -7 101z" />
<glyph unicode="S" horiz-adv-x="1899" d="M-22 188q-1 5 -1 12q0 56 47 187l23 3l-18 29q4 31 27 34q-18 17 -20 29q54 146 63 201q12 1 29 18l23 3l-1 8l15 2q76 8 124 60q6 24 43 29q1 -7 9 -6q-3 27 136 92l15 2q18 2 29 -50q16 2 14 16q50 -13 102 -73l72 -22q72 -39 90 -44l14 9q30 -4 84 -57l16 2 q-2 23 13 25q10 1 19 1q52 0 74 -39l38 11l42 5l14 -21l18 18l-18 21q11 1 58 39q-15 -2 -17 14q19 2 -2 24q-10 14 -11 23q7 11 -16 36q-18 -2 -43 34h-2q-26 0 -159 63q-26 -3 -80 -21l-30 40q-124 43 -150 43h-3q-47 32 -161 51q-5 16 -120 110q-14 -1 -103 89l7 16 q-10 14 -11 22l8 1l16 -6l-2 15l-15 -1l-15 -10l-9 15l-1 7q-1 16 21 18l-26 28q-1 7 6 8l-9 15l-10 142l14 9l17 -6q15 63 44 83l23 3q-19 54 -19 73q0 10 5 10l22 3v9q0 51 31 91q1 -8 9 -7q-4 32 200 84q8 -14 9 -23l2 51l137 33v-8q48 42 79 46q41 -3 47 -3q14 10 22 11 l1 -8l14 10q8 -3 16 -3q24 0 54 26q17 2 29 11l40 -11q14 10 22 11q27 -13 40 -12q-1 8 7 9q5 -14 16 -13l7 16q106 -3 125 -17q2 17 14 18l7 1q326 -51 330 -80q15 2 17 -21q-2 -370 -18 -411l-15 -2q-159 6 -250 6q-66 0 -95 -3q-78 -25 -83 -26l1 -7q7 -61 94 -70 q171 -66 265 -78q4 -52 53 -75q3 -23 50 9q3 -26 83 -122q2 -16 18 -14l1 -7l-6 -17h7q59 0 88 -78l-14 -25q2 -15 25 -12l5 -39l12 -37l-8 -1q17 -58 37 -58h1q3 -28 -30 -73l16 -6l15 10l4 -31l-16 -2l1 -7l15 2q-12 -32 -20 -33q1 -8 9 -7q-6 -250 -159 -401l-23 -3 l-16 6l3 -22l9 -16q-38 -50 -48 -52q-14 7 -31 5l9 -15q-48 -59 -100 -65q-14 -21 -13 -33l-7 -1q-8 -1 -8 6l-161 -80l-2 15l-8 -1l3 -23l-8 -1q-7 0 -8 8q-51 -61 -70 -63q-31 -4 -51 -29q-32 4 -35 27q-116 -24 -135 -32q-16 6 -24 5l-45 -13l-124 2q-14 -10 -22 -11 q-17 17 -19 29q-29 -15 -28 -26q-30 19 -127 23l-42 34l-6 -16l-17 6q-39 -13 -67 -16q-61 13 -177 57l-8 -1l-1 8q-1 8 7 9q-10 14 -11 22l-7 -1l2 -16l-23 -3l-1 16l-22 -19q-83 72 -102 74q-27 37 -73 37q-7 0 -15 -1q-2 11 -70 61zM433 1790l22 3q-1 13 -13 13h-3z M634 1055l2 -15q5 -15 18 -13l-2 15q-2 13 -14 13h-4zM1621 241l3 -24q16 2 14 18z" />
<glyph unicode="T" horiz-adv-x="2105" d="M-70 1791h7l-7 14q0 101 58 101h50q70 -17 128 -17q40 0 75 8h55l43 -7q14 7 22 7q14 -7 21 -7q8 0 8 7l36 -7h50q37 0 109 7v-7l14 7h22q7 0 7 -7l15 -13h14q163 25 173 25h94q8 0 8 -7l14 7q7 0 7 -7l36 7h44q16 0 29 -7q23 4 122 14v-7q14 7 22 7q24 0 36 -7l174 14 l14 -7l43 7h37q7 0 7 -7q23 14 43 14h22q7 0 7 -7q28 5 79 5q0 -8 8 -8q2 15 14 15h7q8 0 8 -7l14 7h22q7 0 7 -7l170 21v-7l14 7h15q7 0 7 -7q26 3 47 3q89 0 113 -46q28 -58 14 -58l7 -14q-36 -30 -36 -37q0 -27 7 -27q-39 -41 -91 -331q0 -54 -50 -72q-59 21 -101 21 l-15 -7q-32 15 -101 15q-25 -8 -29 -8l-14 8l-29 -8l-51 8q-5 0 -43 -8l-15 8l-43 -8q-8 0 -22 8l-101 -15l-14 7q-8 0 -8 -7l-36 7h-14v-7l14 -22q0 -7 -7 -7l7 -14v-7q0 -32 -14 -58q9 -65 14 -80q-9 -50 -21 -50q9 -116 36 -116q-9 -35 -29 -88q7 0 7 -7q-14 -2 -14 -14 q0 -8 7 -8l-7 -50v-44q0 -7 -8 -7l15 -86l-7 -15q7 -49 7 -79h-7l14 -80l-7 -14q7 -40 7 -58h-7l58 -361q0 -26 7 -65q-14 0 -36 -51h-7l-15 7q0 -14 -14 -14h-22l-14 7q0 -16 -65 -22l-29 15q-14 -7 -22 -7l-36 7l-15 -7q-49 7 -65 14q-23 -14 -43 -14h-87q-29 0 -137 -51 q0 13 -65 22l-43 29q-15 28 -15 79l7 43q-7 12 -7 37l7 28q-7 14 -7 22l7 29q-14 69 -14 87h7l-7 14v15q0 7 7 7l-7 14v22q0 7 7 7q-11 16 -21 87q4 43 21 43v15l-14 21v8q2 14 14 14l-7 72v36q0 8 7 8l-7 14q5 101 22 101l-8 15v36q0 16 8 29q-8 14 -8 21h8l-8 15v50l-7 37 q13 0 22 65l-15 7q15 78 15 101l-7 14l21 44h-14v7l22 51q0 7 -8 7l8 86v8q0 16 -8 29q8 12 8 28h-65q-8 0 -8 8q-14 -8 -21 -8q-22 8 -22 15l-36 -7q-16 0 -29 7q-65 -7 -123 -22q-28 0 -322 44q0 7 -7 7q-13 -7 -29 -7q-51 19 -87 65l7 36v14l-7 15q14 7 22 7v7 q-31 0 -37 80h8q-22 47 -22 85z" />
<glyph unicode="U" horiz-adv-x="2214" d="M55 793v8q0 7 8 7l-8 16q0 8 8 8q-8 15 -8 23q0 12 16 70q-16 0 -16 15v8l16 23q-16 0 -16 16q17 0 31 23q-31 84 -31 132l16 8q-8 15 -8 23l8 16q-8 13 -8 31h15v7q-23 0 -23 16q12 0 47 70l-8 15v31h23q0 16 -15 16q0 -8 -8 -8l-8 16q0 30 39 62v7l-16 -7q0 15 -31 38 l16 8l-8 16v7q2 16 16 16l-8 16q0 7 8 7l-8 16v15q5 47 23 47q0 -8 8 -8q0 8 8 23h-31v62q0 18 7 32q-15 40 -15 77q59 23 85 23q0 -7 8 -7q0 18 116 38l16 -7q193 38 217 54h39q122 0 163 -16q2 16 15 16v-8l16 8l15 -8q14 8 31 8v-23h8q26 0 39 7q101 -15 101 -23v-15 l15 7q34 0 47 -77v-8q-28 -225 -39 -225q0 -8 8 -8l-8 -93v-23q0 -8 -8 -8l8 -15q0 -69 -23 -101q15 -3 15 -16q-7 -15 -7 -23q7 0 7 -8q-15 -2 -15 -15q26 0 39 -109h-8l8 -16q0 -7 -8 -7q15 -202 85 -202l24 -31l-8 -16h8q7 0 7 8q31 -6 31 -15l16 7q15 -2 15 -15 q100 0 163 124q30 0 62 124q0 9 47 55h-31v15l31 8v8l-16 23v23q26 23 47 117q-15 50 -15 69q20 39 54 39v8q-47 0 -47 70h8l-8 15v8l16 23l-8 47q16 36 16 70q-16 0 -16 15v8q2 16 16 16q-24 61 -24 77q64 39 86 39h108q21 0 47 15q79 -7 124 -7l16 7q13 -7 31 -7h54l23 15 q0 -15 148 -31q31 16 54 16l8 -16q0 -8 -8 -8q0 -23 23 -23q0 -15 -15 -15l-16 7q0 -11 -23 -23q0 8 -8 8q0 -7 -23 -62q15 -3 15 -16q-15 -31 -15 -54q0 -71 23 -194v-124q0 -8 -8 -8l8 -16v-62l8 -54h-8l8 -15q0 -8 -8 -8l8 -39v-8q0 -8 -8 -8q0 -7 8 -7l-8 -39v-8 q0 -21 16 -46l-8 -16q15 -81 15 -124l-15 -8l8 -15v-8q0 -8 -8 -8l8 -15q0 -122 -86 -326q-10 0 -39 -109q-111 -240 -147 -240q0 -30 -54 -39q0 -24 -132 -55q-30 -13 -210 -54l-39 8q0 -27 -186 -39l-15 8l-303 -39q-13 8 -31 8q-32 0 -85 -8q-93 8 -93 16q-15 -8 -24 -8 q-23 8 -23 15l-15 -7l-32 23l-7 -16q-93 16 -93 31l-16 -7q-101 0 -264 124l-23 31l-16 -8q-54 51 -54 93q0 8 8 8q0 23 -23 23v16q2 15 15 15q0 48 -62 186q16 31 16 55q-16 0 -16 15v8l8 39q-11 0 -23 23h23l-8 16v38q0 8 8 8q-11 44 -23 62v8l7 16q-11 0 -23 23z" />
<glyph unicode="V" horiz-adv-x="1922" d="M0 1835v8q0 16 64 24q8 0 8 -8q13 0 312 32v-8l16 8q8 0 8 -8l16 8h40q8 0 8 -8q16 8 24 8q42 -8 48 -8l16 8q62 0 120 -264q12 0 24 -24q-8 0 -8 -8q16 0 24 -48v-32q18 0 56 -128q-8 0 -8 -8q13 -10 112 -304q-8 0 -8 -8h8q16 8 24 8q0 -8 8 -8v16q-8 15 -8 24 q61 112 72 112l-8 16q0 41 41 64h8v-16h8v16l-33 24q0 17 49 120q0 8 -8 8q0 96 40 96q0 16 -16 16q0 32 40 32v8h-24v8q0 8 8 8q-16 40 -16 56q8 0 40 72q-16 0 -16 16v16l16 24v8l-8 48q5 48 32 48l40 -8q0 16 24 16q162 0 256 -16l40 24h8l120 -40q8 0 8 8 q141 -8 200 -24q0 8 8 8l16 -24q43 32 120 40q27 0 48 -56q8 0 8 -8l-64 -88q8 -16 8 -24l-32 -24l8 -16v-32q-10 0 -56 -56h-8l16 -40q-27 -24 -48 -24l8 -16v-24q-48 -104 -56 -104l8 -16v-8q0 -12 -24 -24l8 -16v-8q-24 0 -128 -224q-64 -90 -64 -96q0 -46 -56 -105 l8 -16q-16 -59 -56 -80l8 -16v-8q-41 -40 -48 -120q-11 0 -32 -40l8 -16q-12 0 -24 -24q8 0 8 -8l-16 -8l8 -16q-16 -48 -40 -48l8 -16l-56 -144l8 -16q-48 -57 -80 -152q-16 0 -104 -104q-16 -8 -24 -8q0 8 -8 8q0 -11 -24 -24h-8l-16 8q0 -24 -73 -24q-15 8 -24 8 q0 -14 -40 -24q-15 8 -24 8l-16 -8q-14 8 -32 8h-16l16 -24q-87 0 -152 -32l-16 8q-149 -48 -176 -48h-8q-104 52 -104 144q8 0 8 8q-39 26 -56 80l8 48l-32 104q8 0 8 8q-45 77 -64 240q-64 170 -64 248h8l-8 16l8 16l-64 321l8 16q-16 0 -24 88q-8 0 -8 8v40q0 8 8 8 q-24 66 -48 200q8 0 8 8q-18 5 -48 120l8 16q-36 75 -48 184q-8 0 -8 8z" />
<glyph unicode="W" horiz-adv-x="2372" d="M0 1827h8l-8 16q27 39 86 39h86q8 0 8 -8l368 86l15 -7q13 9 79 15v-8l15 8h32q54 -2 54 -15l16 7h8q75 -59 172 -360q36 -83 47 -94l-8 -15q35 -41 71 -180q15 0 15 -16h24v39q86 149 172 149h8q75 0 148 -141q47 -36 47 -55q45 55 55 55v31q2 40 16 40l-8 15q0 8 8 8 l-8 16v8l8 15q-8 0 -8 8q14 0 31 78q-23 0 -23 16v8h16l-8 39q31 12 31 23l-8 39h8q-8 40 -16 40q8 44 47 101l-8 16l8 47h-15v16q4 0 31 7l-8 16v8q0 8 8 8l-8 15q0 8 8 8l-8 16q0 19 102 39q211 -75 211 -94l16 8q62 -31 227 -71q0 -7 47 -15q8 0 8 8q125 0 125 -86 q11 0 23 -24v-8h-15l7 -15v-40q0 -7 -7 -7l7 -16q-21 -63 -54 -110q7 -15 7 -23q-14 0 -23 -70l8 -16q-8 -24 -16 -24l8 -15q-39 -126 -39 -157q11 0 23 -23v-8q-65 -50 -94 -227q-62 -194 -62 -227q-17 0 -47 -149q-11 0 -24 -23l8 -16q-18 -55 -31 -55l8 -15v-8l-63 -227 q8 0 8 -8l-16 -8l8 -15q0 -16 -16 -16l8 -16l-31 -94l8 -15q0 -22 -39 -78q-8 0 -8 7q-59 -15 -110 -15h-8q-7 0 -7 8l-16 -8l-39 8l-16 -8q-8 0 -8 8l-47 -8l-47 8q-82 -16 -101 -16v8l-16 -8h-8q-123 0 -219 219q-31 43 -31 70q-46 0 -118 -187h-7v-39q-71 -102 -133 -102 q0 15 -16 15h-8v-15h-8q-8 0 -8 8q-16 -8 -86 -16l-47 8l-54 -24q-8 0 -8 8q-162 -39 -196 -39v8l-15 -8q-94 0 -94 55q0 50 -24 70l16 24q-16 0 -55 101v40q0 7 8 7q-8 24 -16 24l8 16v7q-47 0 -63 110q8 0 8 8q-39 37 -39 101q8 0 8 8h-24q0 39 32 39v16h-8l-24 -16v24h24 q-8 15 -8 23l-23 -15l-8 15h8q-24 40 -24 55h8q-31 94 -47 118v15l8 16q-16 0 -16 16v7q0 8 8 8q-10 57 -31 78q15 26 15 40q-20 0 -31 70l8 16q-8 56 -16 70l16 8q-24 34 -39 117h8l-8 16l15 31q-31 0 -31 24l16 39h-24v8q16 0 16 7q-24 29 -39 134h15v7l-23 39l8 32 q-16 25 -16 47l8 15q-10 0 -31 47v24q0 15 31 15q-36 34 -39 94h8q-16 26 -16 47z" />
<glyph unicode="X" horiz-adv-x="2169" d="M0 21v31q170 263 433 705q61 72 86 131q0 41 -171 217q0 37 -139 201q-116 186 -194 186v8q0 8 8 8l-8 54v23q0 25 117 62q100 68 100 77q0 19 124 93q40 62 116 62l16 -8q15 8 23 8l178 -186q74 -111 217 -216l38 -16q109 43 109 124q0 18 77 124q0 49 124 255 q0 62 101 70l31 -8q15 8 23 8q31 -8 54 -8v8l333 -54v8l15 -8q136 -8 163 -8l23 -31v-23q-110 -125 -178 -333q-70 -267 -116 -333q0 -18 -70 -193q-10 -7 -46 -124q0 -34 217 -209q212 -306 410 -550v-23q0 -46 -217 -46l-31 7l-542 -131h-7q-54 0 -171 232 q-59 116 -131 186h-16q-39 -57 -77 -178q-23 0 -124 -217q-26 -26 -93 -54l-46 7l-55 -7q-28 15 -62 15h-23q-25 0 -85 -46q-42 85 -93 85q-38 -8 -38 -16q-47 16 -47 24l-15 -8h-124q-43 0 -109 -8q-11 8 -46 8v-8q-44 23 -62 23z" />
<glyph unicode="Y" horiz-adv-x="1877" d="M-66 1717q16 55 97 55q22 -13 49 -13q181 31 242 67q0 12 61 18v-6l140 37q105 0 169 -207q44 -92 170 -242h13q48 61 66 200q31 34 55 200q5 0 42 91q193 61 322 61q12 -6 18 -6q20 12 37 12h6q24 0 24 -6l42 6h116q261 0 261 -55q30 -51 30 -72q0 -53 -91 -231v-24 q-26 0 -158 -237q-24 -85 -42 -85l6 -12q-31 -106 -61 -170q-16 -74 -85 -176q0 -36 -79 -79q-81 -80 -97 -212q0 -7 61 -619q-63 -36 -176 -36h-37q-6 0 -6 -7l-12 7q-66 -19 -194 -31q-12 6 -18 6q-52 -17 -55 -24q-127 18 -127 61v18q0 63 18 230l-6 25l12 109 q-6 8 -12 85l6 12q-22 243 -79 243q0 10 -54 42q-82 73 -195 134q-49 110 -133 212q-110 124 -213 322q-51 61 -72 127q-43 45 -61 170z" />
<glyph unicode="Z" d="M-31 1312q17 33 23 57l-6 12l17 34q-5 0 -5 6q10 1 62 120q9 0 18 17q-6 0 -6 6q8 0 34 80h6q-6 11 -6 17q23 51 40 137h12l-6 11q0 57 108 80q75 35 252 63h11l12 -6q0 6 5 6v-6l57 23q32 -5 46 -5q19 11 34 11q18 -6 18 -11l11 5q59 -5 69 -5l40 11q0 -7 40 -23h17 l17 12v-6l11 6q59 -35 103 -35l12 6l28 -11q6 0 6 5q74 -5 74 -11q11 6 17 6q21 -12 126 -29l11 6q52 -14 52 -17l11 5l17 -11q11 6 18 6q0 -12 91 -29q80 -25 80 -63v-17q-15 -63 -34 -63l5 -11q-69 -95 -114 -212q-46 -62 -68 -125q-9 0 -103 -172q-7 -20 -35 -45 q0 -43 -62 -120q0 -18 -52 -92l-74 -126q-40 -43 -40 -62q-19 -53 -46 -80v-6q6 -10 6 -23q0 -8 -34 -34l-12 5q-23 -70 -23 -74h6q51 9 69 23q5 0 5 -6l206 46q0 6 34 17l23 -6q21 0 80 12q6 0 6 -6l28 6h12q6 0 6 -6l11 6q40 -6 69 -6q11 6 17 6l5 -12q6 0 6 6l40 -6h23 q56 18 63 18q0 -12 45 -18q0 -17 23 -17q17 0 17 29h12q17 0 23 -46q-6 0 -6 -6q6 0 6 -5h-12v-12q21 0 40 -63h6q-6 -57 -11 -57l5 -11q-18 -91 -34 -91l6 -29v-11l-12 -18q6 -11 6 -17q-9 0 -17 -23l6 -22q0 -30 -155 -46q0 -6 -11 -6q0 6 -6 6q0 -22 -165 -40h-12v-12 l-17 12q-23 -29 -46 -29q0 12 -11 12v-12h-6l-17 12q0 -20 -97 -40q0 5 -6 5q0 -11 -11 -11l-12 6q-21 -12 -45 -12q0 6 -6 6q0 -11 -69 -29v6l-23 -11v11h-5q0 -17 -35 -17q0 6 -5 6v-6l-12 6h-5l5 -40l-17 -12h-6l-22 17h-6v-11q-34 6 -34 17l-12 -6h-11l-12 6 q0 -11 -11 -11q-6 0 -6 5q-7 -5 -28 -5v5h-12q0 -19 -28 -28q0 11 -12 11q0 -7 -51 -23q0 -5 -6 -5t-6 5l-23 -11q-10 6 -22 6q0 -14 -40 -17q0 5 -6 5q-6 -17 -34 -17q-6 0 -17 6q-10 -6 -23 -6v6q-32 -8 -46 -17h-17q-13 0 -23 5q-10 -5 -23 -5l-11 5q0 -11 -12 -11 q-86 34 -131 86q-67 69 -126 183v5l29 46l-6 11q20 0 86 223q-6 11 -6 17q14 12 23 12v34l40 46l-6 11q7 28 23 46q-6 0 -6 6q7 0 35 68l11 6l-6 11l12 23h-6q11 34 40 52q0 10 17 51h6l11 -6v6l-5 11q7 29 17 29l-6 11q21 17 40 86h11l-5 12q8 0 28 68q29 40 52 137 q16 29 22 29q-5 22 -17 40l-11 -6q-11 6 -17 6q0 -12 -17 -12q-144 19 -177 29q-6 0 -6 -6q-74 4 -74 17l-58 -5h-17q-5 0 -5 5q-66 -28 -98 -28v6l-11 -6q-40 21 -40 51z" />
<glyph unicode="[" horiz-adv-x="1604" />
<glyph unicode="\" horiz-adv-x="1507" />
<glyph unicode="]" horiz-adv-x="1482" />
<glyph unicode="^" horiz-adv-x="2116" />
<glyph unicode="_" horiz-adv-x="1192" />
<glyph unicode="`" horiz-adv-x="1682" />
<glyph unicode="a" horiz-adv-x="1843" d="M-70 -16q12 0 31 184l91 421l12 6l-6 12q61 178 67 244q29 0 55 153q41 62 73 213q25 96 110 342q0 26 30.5 121t61.5 233l-6 12v7q0 9 36 24q39 -8 68 -18q11 6 18 6q43 -19 49 -19q33 7 49 7q129 -18 221 -28q17 -2 43 -1q120 0 444 35l12 -6q54 6 67 6q61 0 61 -165 l-12 -37q12 -2 12 -12v-110q0 -6 6 -6l-18 -37l18 -85q0 -6 -6 -6q28 -275 43 -275q0 -6 -6 -6q22 -160 54 -244q0 -79 55 -293h-6q25 -61 67 -299q4 0 19 -49l-6 -30q36 -153 36 -190v-55q17 -23 25 -61q-6 0 -6 -6h6q-6 -30 -25 -30q-10 0 -73 6q-4 30 -18 30h-55 q-106 25 -116 25l-43 -12l-49 12l-122 -12l-30 6q-155 -43 -177 -43h-43q-46 0 -79 323q-23 36 -37 104q6 11 6 25q-34 18 -49 18q-55 0 -55 -49h6l-36 -134q18 -49 18 -61q-16 -31 -36 -196q-31 -48 -68 -48l-18 12l-73 -18l-12 6h-74l-42 6v-6q-12 6 -19 6q-19 0 -85 -12 q-46 12 -55 12q-58 -19 -61 -19q-7 0 -18 7q-33 -7 -55 -7h-31q-6 0 -6 -6l-12 6l-104 -18q-12 6 -18 6q-9 0 -55 -12q-49 0 -49 85zM882 943q0 -20 67 -31q37 19 43 19v6q0 53 -55 97z" />
<glyph unicode="b" horiz-adv-x="1338" d="M57 41q29 52 29 75l-6 51h6q-6 18 -12 18l6 28v6q0 6 -6 6l6 11v29q0 71 -6 173l6 28q-6 21 -6 58l6 23l-6 11l6 29q0 4 -6 35q12 49 12 63q-6 10 -6 23q12 0 12 11l-12 23l6 29q0 14 -12 63l6 12q-6 31 -6 52v11l6 35l-6 11q6 11 6 18l-11 57l11 75l-6 29q12 142 23 224 l-5 11q5 11 11 58q0 6 -6 6q0 6 6 17q-6 63 -6 109v6l6 34q-6 9 -6 35l6 11l-17 87q0 7 6 57q0 9 -29 63q27 52 144 52q5 0 5 -6q30 6 127 12l11 -6q57 16 156 29q5 0 57 -12q29 0 29 12q57 -6 86 -6h98l17 -11q6 0 17 5q173 -24 173 -51q20 0 58 -35q58 -22 115 -132 q19 0 46 -161v-29l-6 -34l11 -29l-11 -29l6 -34q0 -70 -87 -225q-97 -88 -178 -120q-29 -26 -29 -29v-6q2 -11 12 -11h34q127 -22 179 -70q155 -169 155 -293q0 -6 -6 -6l6 -28q0 -157 -75 -345q-52 -41 -52 -64q-114 -138 -391 -207l-11 6h-6q-13 0 -23 -6l-12 6 q-126 -8 -126 -17q-11 6 -17 6l-12 -6l-29 11q-19 -11 -57 -17q-32 6 -46 6q-4 0 -35 -6q-21 12 -46 12v-6q-66 23 -115 23h-28q-28 0 -58 -6q-82 0 -92 52zM497 299q6 -17 11 -17q8 0 150 58q0 39 -86 109q-16 34 -41 34q-17 0 -34 -184zM517 1296q0 -69 23 -69h11 q104 30 104 40q0 64 -132 98l-6 -12v-57z" />
<glyph unicode="c" horiz-adv-x="1804" d="M0 681l13 144l-6 13l19 46q0 5 -6 40q3 50 26 78v27q0 73 66 236q52 183 229 387q104 58 125 79q88 69 210 112q49 43 210 92l14 -7h6q15 12 59 20l40 -7q80 20 111 20q13 -7 20 -7q13 7 20 7q28 -29 197 -59q14 -20 137 -66q0 -5 40 -33l59 27q32 0 59 -53l-7 -39h7 q-92 -167 -92 -217q-4 0 -13 -20l7 -13v-6l-33 -40l6 -33l-33 -19l7 -13q0 -20 -46 -119q-7 -124 -52 -124h-14q-78 26 -85 26q-168 0 -223 -151q-13 -1 -20 -46q0 -7 7 -20q-33 -74 -33 -105q6 0 46 -105q157 -148 354 -171h27q38 0 105 7q12 -7 19 -7l92 27q65 0 73 -86 q-7 -57 -7 -65q7 -20 13 -20q-6 -77 -6 -112v-137q0 -7 -7 -7l7 -13q-20 -26 -20 -40q46 -22 46 -32v-33q-173 -29 -237 -53l-26 7q-54 -20 -217 -53q-2 -13 -32 -26l-46 20q-67 -7 -105 -7h-66l-39 7q-13 -7 -20 -7l-46 7q-58 -7 -66 -7q-16 0 -92 13l-13 -6q-35 6 -59 6 v-6q-363 83 -505 243q-61 54 -79 124q-46 0 -118 322v13l6 13z" />
<glyph unicode="d" horiz-adv-x="1602" d="M42 83l7 36q0 63 8 285l-8 30l37 255h-7l7 15v22q0 30 -7 58q7 29 7 59v15q0 7 -7 7q7 12 21 131q0 11 -14 66q14 55 14 59q-5 43 -14 43l7 15v44q0 74 -7 183l7 36q-7 40 -7 59l7 65l-7 44q0 8 7 22l-7 51q0 25 7 212q-7 22 -14 22q0 44 175 44h29q429 -29 482 -66 q169 -42 169 -66q3 0 29 8q37 0 80 -66q164 -90 387 -336q10 -29 103 -183q0 -20 36 -146l-7 -15q9 -82 22 -102q0 -15 -7 -15l7 -87v-29q0 -296 -183 -556q-214 -248 -336 -248l-80 -37l-66 15q-255 -69 -314 -95h-15l-15 7q0 -10 -43 -29l-15 7q-79 0 -234 -51 q-29 15 -51 15l-29 -8q-22 8 -22 15l-15 -7h-7q-64 0 -110 95l8 36q-5 66 -15 66zM597 945q0 -11 15 -66l-7 -73q0 -14 29 -109v-22h15q23 23 124 66q22 44 22 58q-21 197 -190 197z" />
<glyph unicode="e" horiz-adv-x="1641" d="M-10 -95q37 13 37 100q13 165 25 261h-6l6 12v19q0 6 -6 6q12 41 19 218q-7 12 -7 18q7 38 13 38q-6 98 -19 143l19 31v49l18 137h-6q25 137 38 292q6 0 6 13q0 6 -6 6q0 12 24 112q-6 12 -6 19l13 25l-7 31q0 195 56 348q13 0 13 12v6h-19q0 -14 -25 -24h-12 q-13 0 -19 62q0 28 81 37q25 -6 44 -6q105 6 105 18q12 -6 19 -6q6 0 6 6l31 -6h13l273 31q24 -6 50 -6q16 0 50 6q18 -6 18 -12l13 6h124q14 0 25 6q8 -4 87 -12l31 6l25 -6l100 12q32 -6 37 -6q68 5 68 13l25 -7q48 0 124 13l13 -6l31 12q53 -6 87 -6h25q12 -2 12 -13 q0 -36 -43 -124l-56 -236q18 -31 18 -44q-13 0 -24 -62q12 -20 12 -37q-12 -45 -12 -50q0 -6 6 -6q0 -6 -6 -6q0 -7 6 -19q-6 -44 -6 -50q12 -39 12 -43q-19 -63 -62 -63l-69 19q-225 -25 -335 -50h-44q-25 -12 -25 -18q-7 0 -62 6q-113 -6 -143 -6q-23 -26 -37 -112 q15 -13 25 -13q180 8 180 19q12 -6 19 -6q64 18 99 18q100 -4 100 -12l12 6q6 0 50 -6l12 6q94 -19 100 -43v-6l-38 -131v-75q0 -52 -68 -93h-118q-56 -25 -274 -43v-7l-12 7h-19q-27 -15 -31 -32q6 0 6 -6q-12 0 -18 -50h6q-13 -24 -13 -43q7 -34 7 -50h18q185 38 255 38 q12 -7 19 -7q36 19 62 19l25 -6q20 12 37 12h19q36 0 99 6q12 -6 19 -6v6l37 -18h7l37 18q81 -6 130 -6h19q10 0 25 -43q0 -12 -112 -131q-56 -113 -56 -267q31 -18 31 -38q0 -10 -81 -80h-24q-19 16 -94 37h-12l-13 -6q0 9 -18 18h-75q-12 0 -12 13q-80 -6 -94 -13 q-33 7 -56 7h-24q-17 0 -38 -13q-31 13 -43 13q-50 -9 -50 -19l-12 6l-137 -6q-84 -13 -106 -13h-6l-25 19q0 -16 -56 -31l-43 6q-19 -6 -19 -12l-13 6q-62 -20 -122 -22.5t-83 -2.5q-2 -13 -130 -50q0 -12 -13 -12h-37q-48 0 -56 25v6z" />
<glyph unicode="f" horiz-adv-x="1450" d="M34 223q26 43 26 65q0 19 -7 19q7 65 7 97v104q0 76 6 155q-6 29 -6 104h6l-6 13v45q0 27 6 71l-6 13q58 601 116 750q36 115 52 136q0 5 -32 33v19q476 97 569 97q23 0 136 13q20 0 149 -26q58 7 58 13l13 -6q44 0 78 6l129 -19l13 6q140 0 175 -65l-7 -38q7 -13 7 -20 q-13 -46 -13 -71q0 -7 6 -19l-6 -39v-26q0 -7 6 -7q-8 -46 -26 -64q13 -2 13 -13q-6 -36 -6 -52h6q-9 -65 -19 -65l6 -64q0 -130 -77 -130q-23 -6 -26 -6q-72 13 -266 32l-58 -6l-45 6q-155 -19 -155 -77q-20 -50 -20 -91v-32q20 0 20 -7q117 20 148 20h20l39 -7l13 7 q90 -18 90 -72l-32 -161l6 -13q0 -13 -13 -46l7 -13l-7 -38v-13q0 -7 7 -7q0 -16 -45 -45q-7 0 -7 6q-69 -6 -84 -12q-14 5 -71 12q-13 -6 -20 -6l-32 6q-49 0 -65 -90q-6 0 -6 -7q2 -13 13 -13q-20 -17 -39 -200q13 -2 13 -13v-39q5 -56 19 -58l-6 -13l19 -65l-6 -13 q26 -84 64 -84q65 -40 65 -58q-67 -22 -97 -58q-18 0 -32 -20q-101 39 -130 39q-158 -19 -232 -19q-7 0 -20 6q-50 -24 -336 -45q-16 0 -52 19l6 46v39q0 45 -13 45q9 79 13 90q-19 30 -19 39z" />
<glyph unicode="g" horiz-adv-x="1594" d="M25 959q37 357 94 357q101 232 155 263q184 210 364 262q166 115 391 115l323 -88q41 -40 41 -53l-7 -48q10 -52 27 -74l-7 -13l39 -280l-20 -13h-27q-16 0 -128 27q-15 0 -27 -7q-36 7 -74 7q-143 -6 -263 -157l-76 -145q-21 0 -27 -231q81 -466 306 -488l-82 341 l-70 183l138 66l205 11l226 -62l10 -9q10 -8 28 -240q13 0 13 -34v-47q0 -285 -94 -431h7q-90 -132 -303 -203l-91 7q-72 -13 -94 -13h-67l-41 6q-14 -6 -61 -13q-26 7 -47 7q-7 0 -20 -7q-79 7 -114 20l-14 -7q-172 41 -330 115q-192 181 -202 290q-38 139 -54 175l7 34 q-10 80 -21 80l7 27q0 9 -7 68l7 13q-13 25 -13 54v94q0 7 6 7z" />
<glyph unicode="h" d="M66 351q0 4 6 37q-6 12 -6 18q6 44 6 74q0 6 -6 18q10 78 25 246q0 14 -7 25l13 368l-6 31q6 44 6 74q-19 141 -19 276v31l-6 37q0 6 6 6l-6 43v80l-6 74q0 17 313 55q76 31 154 37q43 -6 74 -6q20 12 37 12h12q27 0 37 -80l-6 -12q0 -7 6 -18q-12 -43 -12 -74v-74 q0 -14 6 -25q-13 -20 -13 -36q7 -19 13 -19l-6 -12v-49l6 -62h-6q6 -18 12 -18q-6 -19 -12 -19q6 -18 12 -18q-6 -12 -6 -19q10 -16 18 -79q-6 -33 -6 -62v-18q0 -9 25 -19q79 0 79 62q-6 12 -6 18q0 159 -18 400q6 52 6 79q-5 25 -12 25q26 117 110 117q262 86 338 86 q12 -6 19 -6q57 12 92 12h104q191 -24 191 -43q37 -20 37 -61l-13 -56q13 -2 13 -12l-6 -43q6 -34 6 -49h-6l6 -13q0 -16 -13 -36l13 -7l-13 -73l7 -25q0 -6 -7 -18q7 -63 7 -99v-24q0 -6 6 -6q-6 -13 -13 -68q7 -12 7 -18l-19 -37v-92l-12 -19v-43q0 -6 6 -6l-25 -86 q0 -7 7 -18q-7 -11 -7 -25v-6l13 -19v-24q-16 -23 -37 -68l12 -24h-6q0 -7 6 -7l-18 -67l6 -31q-14 0 -19 -31q0 -30 13 -30q-24 -49 -37 -123h6q-6 -12 -6 -19l6 -12l-6 -12q6 -33 6 -56v-12q-17 0 -25 -67l13 -56q-6 -9 -13 -67q7 -11 7 -25q-9 0 -19 -18q12 -25 12 -43 l-18 -13l6 -24q-12 -39 -12 -43l6 -31l-6 -37q6 0 6 -6q-17 0 -37 -74l-25 -12q-21 0 -98 74h-24q-58 0 -93 -25q-4 0 -36 6q-13 -10 -99 -18l-31 6l-135 -12q-78 0 -110 86q0 8 18 61h-6l12 49q-6 34 -6 56q0 25 6 67l-6 31q0 5 6 37l-18 74q18 27 24 86l-6 37q0 6 6 6 l-6 24q6 114 19 154l-6 37v55q-14 0 -25 6q-154 -27 -154 -61l-18 -80v-6q2 -13 12 -13l-6 -12v-31q0 -13 6 -24l-6 -12q11 -44 25 -154l-6 -12q12 -47 12 -86v-7q0 -6 -6 -6q6 -55 12 -55l-18 -43q6 -12 6 -18l-6 -25q6 -18 12 -18l-43 -160q-91 -25 -326 -62q-12 6 -18 6 q-91 -18 -142 -18q-55 18 -55 55q6 0 6 6q-27 0 -31 142q-8 0 -12 49q0 6 6 6q-12 69 -12 160z" />
<glyph unicode="i" horiz-adv-x="1697" d="M46 1364v6l13 19q-5 38 -13 38q6 35 25 57v57l13 19q-13 21 -13 32h7l-7 12q0 19 7 19l-7 32q0 12 13 70q0 44 -13 44q10 69 19 89l-6 38v6q4 15 44 32q28 -9 51 -26q124 7 342 38l13 -6h12q144 32 412 32l12 6l13 -6q5 0 38 6q44 0 44 -13q13 7 19 7q7 0 7 -7l38 7 q37 0 272 -26q29 13 57 13q40 -13 51 -13v7q20 -13 31 -13v6q114 -31 114 -82q0 -19 -13 -44q0 -45 32 -203q0 -19 44 -209q13 -61 13 -69q0 -33 -19 -38q-80 6 -95 6v-6q-19 6 -19 12q-48 0 -76 -31q-49 9 -69 25l-64 -6h-44l-32 -7v7q-12 -7 -19 -7l-12 7q-51 -17 -51 -32 q0 -26 6 -70l-6 -12l6 -38q0 -13 -31 -127l25 -44v-26q-76 -31 -108 -418l7 -25q-7 -24 -7 -51v-6q4 -19 292 -88q25 6 44 6q76 -23 76 -38l-6 -13l6 -38q-21 -106 -44 -164q6 -34 6 -38q-20 -95 -57 -95q-133 4 -133 19l-13 -7h-12q-7 0 -7 7l-12 -7h-32q-54 0 -82 -12 q-44 6 -70 6q-151 0 -190 -25l-32 6q-20 -11 -158 -25q0 -13 -19 -13l-108 25l-12 -6l-89 13q-57 -7 -57 -13l-31 6h-108q-6 0 -6 -6l-13 6l-63 -6q-127 0 -127 76q0 25 -13 25q45 349 89 349l38 6q145 -25 241 -57h82q97 26 101 51q13 177 13 221q-10 0 -26 25 q51 27 51 463q6 0 6 25q0 6 -6 6q0 22 32 159q0 50 -120 50q0 7 -26 7l-31 -7q0 13 -13 13q-17 0 -38 -13l-44 7q-57 -4 -57 -13l-13 6q-169 -21 -209 -38q-76 38 -76 51z" />
<glyph unicode="j" horiz-adv-x="1961" d="M74 693q0 20 244 112q0 6 17 6q31 -7 61.5 -156t115.5 -229q65 -61 147 -61q27 0 55 6q116 26 161 177l6 165q-5 9 -5 22q14 0 28 136q-6 9 -6 28h6l-34 158q6 67 6 96q0 48 -17 119h6q-43 107 -98 107q-29 0 -85 6q19 -6 13 -6l-11 6l-236 -25l-11 5q-21 -11 -45 -11 q-170 20 -170 68q0 28 -54 154q-44 105 -44 187q0 16 2 32l-11 73q0 51 39 51h29q28 -1 28 -11q6 0 6 5q175 4 290 4q153 0 199 -7q6 0 6 6l56 -6h97q108 0 163 -11q8 0 130 17q12 0 12 -6q31 6 45 6q160 0 282 17q30 -6 34 -6q84 6 113 12q11 -6 17 -6l57 6l22 -6 q24 17 125 17q31 -21 51 -130q-6 -11 -6 -17q17 -27 17 -102v-79q0 -20 -6 -51q6 -8 6 -33l-6 -34l6 -29q-6 -63 -6 -113q0 -27 -28 -45l-68 17v-6l-11 6l-34 -6l-11 6q-77 -7 -91 -11l-34 5h-39l-34 -5q-32 11 -91 11v-6q-10 6 -17 6q-39 -8 -39 -23v-33q0 -15 45 -159 q-6 -11 -6 -17q44 -239 44 -426q0 -122 -19 -222q-48 -253 -192.5 -357t-307.5 -123q-115 -14 -231 -14q-48 0 -97 2q-165 8 -310.5 104t-217.5 256q-60 136 -60 308q0 31 2 63z" />
<glyph unicode="k" horiz-adv-x="1638" d="M0 1879q0 14 36 24q19 -12 35 -12h54l35 6q6 0 6 -6l24 6q14 0 65 -12q0 26 101 29v-5q56 29 65 29l12 -6l53 6l42 -6q47 14 47 18l12 -6q53 12 71 12q36 -30 36 -36v-94q0 -14 6 -24l-12 -30q12 -86 12 -118q0 -7 -6 -18q12 -172 24 -267h-6q12 -24 12 -36h11 q87 86 149 261q23 0 41 65l77 116l2 9l49 110l3 20v12q7 0 41 18q38 -12 42 -12l29 6q20 -12 36 -12h59q6 0 6 -6l12 6h6q41 -2 41 -12l12 6h30q34 0 95 6q46 -16 53 -35v-24q-9 -23 -201 -196q-83 -111 -161 -243q-54 -78 -118 -196q-18 0 -42 -94q-16 0 -29 -66 q-29 -33 -60 -89v-23q0 -48 172 -137q298 -250 327 -290q204 -252 219 -326q-17 -47 -113 -89q-31 -37 -201 -107h-18q-100 13 -285 302q-11 0 -71 83q-3 0 -42 36h-5q-14 0 -18 -30h6q-6 -11 -6 -18q35 -154 35 -237l-6 -59h6q0 -6 -6 -6q6 -96 18 -125q-11 -47 -24 -47 h-23l-12 6v-6q-36 18 -113 18h-47q-171 29 -320 41q-81 -6 -101 -6q-12 6 -18 6q-12 -6 -18 -6q-77 21 -77 89l-6 24l6 12q-6 11 -6 18l6 12q-6 29 -12 29l6 30q-18 186 -30 213l6 12q-17 63 -17 77l6 42q-12 60 -12 71l6 42q-12 137 -30 177q6 11 6 24q-12 15 -12 24l6 12 l-6 12q6 11 6 17q-24 49 -24 113v53q0 14 -6 24q6 12 6 18q-12 19 -12 30h6q0 6 -6 6l6 41q-12 159 -17 190q5 10 5 24q0 13 -5 23l5 24q-5 108 -5 136q0 30 11 30q-11 69 -11 166v42q-19 38 -42 59z" />
<glyph unicode="l" horiz-adv-x="1753" d="M34 17l13 40q-5 26 -13 26l7 13q0 27 -7 72l20 45l-7 59q0 20 13 52q-6 45 -6 72q0 37 13 72l-7 39l20 46q-7 33 -13 33l6 33q0 193 20 326q-7 13 -7 20q13 0 13 13v39l-6 39q5 26 13 26l-7 14v19q26 33 26 46q0 23 -19 72q6 44 6 72v26q0 6 -13 52q13 0 13 20 q0 26 7 117l-7 26q7 12 7 27q-13 41 -13 52q0 27 6 72q-6 55 -6 91q6 47 6 52q-9 37 -19 53v19q12 0 59 20l124 -13l13 6l39 -6h7q31 0 65 6l39 -6q83 6 92 13l32 -7q75 13 105 13q117 -15 117 -19l14 6q63 0 241 20q13 -27 13 -39q-52 -104 -72 -222q-10 -46 -32 -281v-98 q0 -13 -13 -13q0 -7 6 -20l-6 -33l6 -65q0 -18 -19 -78q6 -33 13 -33q-13 -27 -13 -39q6 -84 13 -92q-13 -21 -13 -39v-33q0 -31 6 -65q-19 -130 -46 -196q0 -36 46 -72l66 7h58q7 0 7 6l13 -6q33 0 33 13l13 -7q20 0 241 46h40l26 -7q52 7 52 13l13 -6h13q42 0 85 6 q7 0 20 -6l148 6l-4 -58h-7q-78 -352 -78 -379v-27l-7 -39q7 -11 7 -26q-18 -52 -66 -52h-98q-46 13 -52 13h-46q-6 0 -52 -13h-13q-24 0 -59 6l-13 -6l-91 13q0 -31 -236 -39l-13 6q-26 -6 -46 -6q-6 0 -6 6q-109 -9 -137 -19q-13 6 -20 6q-122 -13 -157 -13q-6 0 -6 7 q-325 -52 -405 -118h-7q-27 0 -72 7q-11 -7 -26 -7l-13 46h20v19q-20 0 -20 13q7 13 7 20t-7 7l7 32v20q0 6 -7 6z" />
<glyph unicode="m" horiz-adv-x="2075" d="M36 259l18 125l-6 11q7 80 12 95q-6 10 -6 24v17l6 36q0 6 -6 6l6 41v30q0 62 6 130q-12 76 -12 100q17 50 23 136l-6 30q0 6 6 17q-6 41 -6 65q0 35 6 95l-6 12l6 35l-6 36q12 24 12 35q-10 25 -17 47l5 12v47q0 33 12 139l-22 214l403 67q0 -6 6 -6v6q30 0 59 -59 q68 -55 89 -119q89 -100 89 -153q35 -28 222 -336q0 -11 24 -53h24q172 255 296 427q0 78 65 124l-1 5l59 82l2 -5q18 24 28 81q0 71 77 71h6l35 -6q34 18 77 24q19 -12 35 -12q3 0 24 6q84 -32 84 -33.5t-66 21.5l333 -141v-154q0 -25 6 -65q-24 -83 -24 -89q0 -4 6 -35 q-44 -356 -44 -461q0 -35 5 -42q0 -6 6 -6q-33 -229 -33 -337q0 -38 4 -60q9 -49 10 -81q0 -23 -6 -36l6 -35q-1 -31 -1 -60q0 -181 27 -285q0 -23 -167 -47q-70 -10 -168 -11q-137 0 -329 20q-4 205 -4 221v53q8 52 8 159q0 62 -3 143q0 6 -6 17q-25 56 -25 94q0 13 3 25 l20 29q0 12 -12 59q5 36 12 36l-6 41l-20 106l-6 30h-12q-155 -199 -189 -282q-80 -118 -113 -118h-12q0 9 -70 24q-97 171 -164 171q0 6 -6 6l-11 -6h-18q0 -18 12 -83q0 -13 -6 -23q5 -377 94 -639l-123 -97l-325 22l-253 53q-47 146 -47 167q0 2 1 3q-12 36 -12 47z" />
<glyph unicode="n" horiz-adv-x="1652" d="M56 820q12 0 12 13q-6 34 -6 49q12 20 12 37v6q0 31 -18 31v12q31 121 49 277l-12 18v37q24 21 24 43v6q-30 40 -30 62q0 76 49 165l-12 25q6 25 24 25v43q15 98 25 98l-37 80q12 21 154 49v-6q3 0 86 31l12 -6q46 12 61 12q31 0 93 -191q67 -102 215 -430 q153 -217 174 -217h19q0 15 15.5 63.5t43.5 380.5l-13 7l19 86v6q0 6 -6 6l6 12v68q0 6 -6 6l6 12v13q0 33 -6 86q18 73 55 73q0 7 43 13l12 -6h50l18 12h123q14 0 25 6q10 -6 24 -6h37q6 0 6 6q6 0 6 -6l31 6h43q111 -11 111 -49v-6q0 -199 -43 -517l6 -12 q-37 -445 -105 -1002q-71 -363 -92 -363q-49 -18 -61 -18q-70 14 -142 74l-104 135q-24 5 -56 86q-7 1 -177 178l-25 6q-12 -31 -12 -49q0 -4 6 -37q0 -6 -6 -6l12 -135l-6 -12q13 -71 13 -148q-15 -74 -44 -74q-147 5 -147 19l-13 -6q-28 0 -37 6q-42 -6 -68 -6h-67 l-43 -13q-9 0 -56 13q-31 -25 -116 -25q-123 0 -123 49q0 25 -13 43l7 31q0 6 -7 6l7 31q-5 104 -13 104q13 17 19 87q-10 35 -25 135l12 24l-6 31l6 25q-12 58 -12 73q6 51 12 62q-18 81 -18 147z" />
<glyph unicode="o" horiz-adv-x="2127" d="M20 755q6 36 6 52h-6q13 37 13 161q15 5 52 220q48 71 64 155q35 22 84 161q69 160 181 226l155 90q14 0 90 59q22 0 161 58l33 -7h51q70 13 91 26h142q43 -7 45 -19l13 6q197 -39 206 -39v7q54 0 136 -45q0 -12 97 -65q261 -156 297 -297q64 -52 148 -394q7 0 13 -32 q-6 -166 -32 -265v-64q0 -10 -20 -71l7 -13q0 -102 -103 -271q-12 -1 -78 -129q-10 0 -116 -103q-42 0 -52 -33q-190 -97 -458 -142q-140 -26 -168 -26l-13 7q-19 -7 -19 -13q-19 6 -19 13q-7 0 -7 -7q-76 7 -110 7h-97q-182 0 -464 168q0 9 -104 84q-101 113 -135 213 q-31 35 -71 167l6 13q-6 10 -13 71l7 13q-13 30 -13 58zM956 878q33 -136 90 -136q130 0 168 110q7 3 26 65q-13 21 -13 39h7q0 79 -52 129h-58l-20 13h-6q-20 0 -77 -46q-59 -65 -59 -77v-26q0 -27 -6 -71z" />
<glyph unicode="p" horiz-adv-x="1661" d="M-30 36v19q29 29 32 71q-6 12 -6 19h6l-6 13v103q0 6 6 6l-6 13q19 18 19 225q0 7 6 7q0 6 -6 6l6 32l-6 13q6 13 6 20l-6 32h6l-6 13v6q2 13 13 13l-7 13v6l7 32q-13 0 -13 13q19 0 19 103q-6 12 -6 19l13 7l-7 25q0 45 13 136l-6 12q27 180 38 180q-6 4 -6 45l19 45 q-6 0 -6 7l13 6q0 7 -7 7q5 83 19 83l-6 13q21 71 26 71l-7 13v6l26 77q-6 12 -6 26q6 0 6 7q-6 0 -6 6q8 0 25 96l-6 13v32q0 7 6 7l-19 71q39 51 142 51q2 13 12 13h7q6 0 6 -6l26 12h19q2 13 13 13q7 0 7 -6q14 6 96 26v-7q21 13 39 13q0 -6 6 -6q2 12 13 12h19l13 -6 q0 14 58 19v-6q71 16 71 26l13 -7h32q6 0 6 7l13 -7h19v13q34 -6 39 -6l58 6v-6l13 6q82 -8 90 -13q6 0 6 7q71 -10 71 -20l13 7q173 -41 173 -65l116 -38q11 -21 52 -39q0 -7 6 -19l13 6h6q108 -75 122 -103h13v-6l-6 -13q30 0 122 -141q0 -32 19 -32l-6 -13q19 -14 38 -65 q0 -6 -6 -6q6 -14 13 -71q-7 0 -7 -6q13 -2 13 -13q0 -16 -25 -64q6 0 6 -7q-13 -2 -13 -13q7 0 19 -6q-12 -75 -25 -90v-32q-15 0 -45 -97q-65 -77 -84 -77h-6l6 -13q-5 -17 -135 -103q-90 -21 -212 -64h-19v-6h-26l-32 6v-26q-35 -6 -58 -6h-26q-13 0 -13 13 q-95 -32 -116 -32l-32 6q-6 0 -6 -6q-72 12 -167 12q-43 0 -58 -135q-12 0 -39 -141l7 -39q0 -13 -13 -13l19 -96q0 -6 -6 -6q13 -75 13 -90q-7 -13 -7 -20q13 -26 13 -38q-13 -2 -13 -13l13 -7q0 -6 -6 -6l6 -64v-20q0 -6 -6 -6l6 -13v-32q-16 0 -32 -13q-7 0 -7 6l-12 -6 q-65 9 -65 19q-12 -6 -19 -6t-7 6l-32 -6h-13q-6 0 -6 6q-6 0 -6 -6q-36 6 -52 6q-6 0 -6 -6l-84 13l-32 -13l-6 13l-13 -7q-6 0 -52 13q-13 0 -13 -6l-45 6h-64q-6 0 -6 7l-33 -13zM864 1283l19 -32l26 13q11 -6 26 -6q70 37 70 83q15 45 20 45q0 56 -71 90l-13 -6l-32 19 q0 -6 -26 -19q-3 -84 -13 -84l7 -13q0 -11 -13 -38q6 -4 6 -45q-6 0 -6 -7z" />
<glyph unicode="q" horiz-adv-x="2388" d="M10 1025q6 74 15 74q-8 14 -8 22q10 128 82 229q0 24 37 74q-8 0 -8 7q50 24 89 141q52 59 74 59q0 15 -15 15q26 80 214 199q0 5 45 22h15l14 -7q27 32 215 96q2 -15 14 -15q8 15 8 22h59l37 8v-8l15 8l14 -8q63 23 89 23v-23l15 8q7 0 7 -8q37 8 37 15l15 -7l37 7 q0 -7 7 -7q3 15 15 15h74l37 7v-7l15 7h22q7 0 7 -7q15 7 23 7q118 -27 118 -52q7 0 59 15l7 -15l15 8q142 -25 192 -74q22 0 22 -22h15v14h8q14 -2 14 -14l-7 -15q44 -8 74 -37l15 7q0 -9 96 -88q66 -72 66 -89q0 -15 59 -104l-7 -14l15 7h7v-59q59 -88 59 -126q-7 0 -7 -7 l37 -52l-7 -15q22 -37 22 -51h-8q8 -15 8 -23q0 -7 -8 -7l8 -37v-7q-15 -72 -15 -82q15 -2 15 -14q-8 -53 -8 -60l8 -37h-8l8 -14q0 -13 -15 -45q15 -2 15 -14q0 -8 -8 -8l8 -37v-52q0 -16 -8 -29l8 -15q-30 -177 -59 -177q-30 -48 -30 -74q37 0 37 -45l15 8h7v-15l-7 -15 q47 -34 155 -221q118 -93 118 -148q0 -27 -44 -45l-15 8q0 -9 -155 -37q0 -8 -44 -15l-15 7q-12 -7 -37 -7l7 -15l-37 8q-14 0 -66 -30h-22q-54 -17 -82 -44h-22q0 -15 -15 -15h-7v15l-22 -15q-96 0 -133 67q-96 99 -96 118h-45q-7 0 -7 7q-244 -74 -281 -74v8 q-75 -23 -177 -30q-8 0 -23 7l-44 -7h-7q-11 0 -22 22q-37 -22 -52 -22q-74 4 -74 15l-15 -8q-79 13 -96 30h-22q-17 0 -30 -7q-231 73 -288 118q-14 -7 -22 -7q-13 0 -133 110q-22 0 -44 45q-40 26 -134 184l8 15q-15 0 -30 37h8q-37 90 -82 274q0 6 8 59l-8 103h8l-8 15v7 q0 8 8 8q-8 13 -15 74zM616 1779v7h7q15 -2 15 -15l-15 -7zM1000 995l23 -29l-8 -15q15 -2 15 -15q-7 -13 -7 -29l66 -82q15 0 15 15q26 0 81 -44l15 -8l15 8q13 -8 29 -8l52 22l59 82l-7 15q0 14 22 14q-7 16 -15 67q8 0 8 7l-23 15l8 15q-26 73 -82 118v7l-14 -7l-8 15 q-29 -15 -51 -15q0 15 -15 15q-52 -28 -52 -37q0 -22 -15 -22q-7 0 -7 7q-43 0 -52 -66q-21 0 -44 -45h-8z" />
<glyph unicode="r" horiz-adv-x="1742" d="M56 238q7 14 7 22q-7 12 -7 29h7q0 7 -7 7q14 95 14 159l-7 29h7l-7 14l7 51q0 7 -7 7q7 79 15 79q-8 14 -8 22l8 101l-8 36q13 16 29 202h8q0 8 -8 8q15 130 29 216q0 8 -7 8q26 209 36 209l-7 15l29 252q-29 0 -29 51q45 50 296 130q330 65 462 65v-7q8 0 8 7l50 -7 q16 0 29 7q114 -24 181 -58q0 15 21 15q79 -17 130 -36q0 -16 116 -44v-7l14 7q29 -11 29 -21l15 7q64 -33 101 -94q47 -30 87 -87q52 0 86 -144q10 0 36 -36q-14 -3 -14 -15q14 -2 14 -14h-7q15 -37 15 -51q-15 -2 -15 -14l15 -8l-15 -28q7 -40 7 -58q-8 0 -29 -87 q-7 0 -21 -7v14h-7q0 -13 -22 -65q14 -2 14 -14q-13 0 -36 -44h-21l7 -14q-43 -87 -101 -87q-26 -50 -51 -50h-14v-7h14v-15q-12 0 -36 -22q0 8 -7 8q-19 -56 -188 -101q0 14 -15 14h-7l7 -14q0 -11 -79 -51v7q-190 -72 -209 -72v-15q191 -134 216 -180q198 -140 311 -304 q14 0 14 -28q-21 -29 -43 -29l7 -15q-11 -29 -21 -29h-8q-7 0 -7 8l-94 -29q-14 7 -21 7q0 -15 -73 -22q-12 7 -29 7q-14 -7 -21 -7h-22q0 -16 -51 -29l-43 8h-14v-15h-22l-51 7l8 -14v-7l-36 -8q0 8 -8 8q0 -13 -36 -22l-36 22l-29 -8q-33 0 -208 198q-22 0 -22 22h-7 l-3 -71l-4 49q-20 -165 -68 -187q-7 0 -7 8q-37 -15 -51 -15q-50 0 -186 54l-36 -7v22h-7v-15l-29 7q-14 -7 -22 -7q0 15 -14 15l-8 -15l-14 7h-7q-53 -65 -65 -65q-50 17 -80 51v123q0 40 -7 101zM648 1177q36 0 36 -101h-7l7 -15v-7h-14v-7h14l15 7q14 -7 22 -7 q1 11 166 58q36 21 36 29q-36 110 -87 123q0 4 -43 43l-15 -7h-7v14q-16 0 -29 -7l-14 7q-65 0 -65 -29q0 -7 7 -7l-7 -36v-22l7 -14q-22 0 -22 -15v-7z" />
<glyph unicode="s" horiz-adv-x="1899" d="M-22 188q-1 5 -1 12q0 56 47 187l23 3l-18 29q4 31 27 34q-18 17 -20 29q54 146 63 201q12 1 29 18l23 3l-1 8l15 2q76 8 124 60q6 24 43 29q1 -7 9 -6q-3 27 136 92l15 2q18 2 29 -50q16 2 14 16q50 -13 102 -73l72 -22q72 -39 90 -44l14 9q30 -4 84 -57l16 2 q-2 23 13 25q10 1 19 1q52 0 74 -39l38 11l42 5l14 -21l18 18l-18 21q11 1 58 39q-15 -2 -17 14q19 2 -2 24q-10 14 -11 23q7 11 -16 36q-18 -2 -43 34h-2q-26 0 -159 63q-26 -3 -80 -21l-30 40q-124 43 -150 43h-3q-47 32 -161 51q-5 16 -120 110q-14 -1 -103 89l7 16 q-10 14 -11 22l8 1l16 -6l-2 15l-15 -1l-15 -10l-9 15l-1 7q-1 16 21 18l-26 28q-1 7 6 8l-9 15l-10 142l14 9l17 -6q15 63 44 83l23 3q-19 54 -19 73q0 10 5 10l22 3v9q0 51 31 91q1 -8 9 -7q-4 32 200 84q8 -14 9 -23l2 51l137 33v-8q48 42 79 46q41 -3 47 -3q14 10 22 11 l1 -8l14 10q8 -3 16 -3q24 0 54 26q17 2 29 11l40 -11q14 10 22 11q27 -13 40 -12q-1 8 7 9q5 -14 16 -13l7 16q106 -3 125 -17q2 17 14 18l7 1q326 -51 330 -80q15 2 17 -21q-2 -370 -18 -411l-15 -2q-159 6 -250 6q-66 0 -95 -3q-78 -25 -83 -26l1 -7q7 -61 94 -70 q171 -66 265 -78q4 -52 53 -75q3 -23 50 9q3 -26 83 -122q2 -16 18 -14l1 -7l-6 -17h7q59 0 88 -78l-14 -25q2 -15 25 -12l5 -39l12 -37l-8 -1q17 -58 37 -58h1q3 -28 -30 -73l16 -6l15 10l4 -31l-16 -2l1 -7l15 2q-12 -32 -20 -33q1 -8 9 -7q-6 -250 -159 -401l-23 -3 l-16 6l3 -22l9 -16q-38 -50 -48 -52q-14 7 -31 5l9 -15q-48 -59 -100 -65q-14 -21 -13 -33l-7 -1q-8 -1 -8 6l-161 -80l-2 15l-8 -1l3 -23l-8 -1q-7 0 -8 8q-51 -61 -70 -63q-31 -4 -51 -29q-32 4 -35 27q-116 -24 -135 -32q-16 6 -24 5l-45 -13l-124 2q-14 -10 -22 -11 q-17 17 -19 29q-29 -15 -28 -26q-30 19 -127 23l-42 34l-6 -16l-17 6q-39 -13 -67 -16q-61 13 -177 57l-8 -1l-1 8q-1 8 7 9q-10 14 -11 22l-7 -1l2 -16l-23 -3l-1 16l-22 -19q-83 72 -102 74q-27 37 -73 37q-7 0 -15 -1q-2 11 -70 61zM433 1790l22 3q-1 13 -13 13h-3z M634 1055l2 -15q5 -15 18 -13l-2 15q-2 13 -14 13h-4zM1621 241l3 -24q16 2 14 18z" />
<glyph unicode="t" horiz-adv-x="2105" d="M-70 1791h7l-7 14q0 101 58 101h50q70 -17 128 -17q40 0 75 8h55l43 -7q14 7 22 7q14 -7 21 -7q8 0 8 7l36 -7h50q37 0 109 7v-7l14 7h22q7 0 7 -7l15 -13h14q163 25 173 25h94q8 0 8 -7l14 7q7 0 7 -7l36 7h44q16 0 29 -7q23 4 122 14v-7q14 7 22 7q24 0 36 -7l174 14 l14 -7l43 7h37q7 0 7 -7q23 14 43 14h22q7 0 7 -7q28 5 79 5q0 -8 8 -8q2 15 14 15h7q8 0 8 -7l14 7h22q7 0 7 -7l170 21v-7l14 7h15q7 0 7 -7q26 3 47 3q89 0 113 -46q28 -58 14 -58l7 -14q-36 -30 -36 -37q0 -27 7 -27q-39 -41 -91 -331q0 -54 -50 -72q-59 21 -101 21 l-15 -7q-32 15 -101 15q-25 -8 -29 -8l-14 8l-29 -8l-51 8q-5 0 -43 -8l-15 8l-43 -8q-8 0 -22 8l-101 -15l-14 7q-8 0 -8 -7l-36 7h-14v-7l14 -22q0 -7 -7 -7l7 -14v-7q0 -32 -14 -58q9 -65 14 -80q-9 -50 -21 -50q9 -116 36 -116q-9 -35 -29 -88q7 0 7 -7q-14 -2 -14 -14 q0 -8 7 -8l-7 -50v-44q0 -7 -8 -7l15 -86l-7 -15q7 -49 7 -79h-7l14 -80l-7 -14q7 -40 7 -58h-7l58 -361q0 -26 7 -65q-14 0 -36 -51h-7l-15 7q0 -14 -14 -14h-22l-14 7q0 -16 -65 -22l-29 15q-14 -7 -22 -7l-36 7l-15 -7q-49 7 -65 14q-23 -14 -43 -14h-87q-29 0 -137 -51 q0 13 -65 22l-43 29q-15 28 -15 79l7 43q-7 12 -7 37l7 28q-7 14 -7 22l7 29q-14 69 -14 87h7l-7 14v15q0 7 7 7l-7 14v22q0 7 7 7q-11 16 -21 87q4 43 21 43v15l-14 21v8q2 14 14 14l-7 72v36q0 8 7 8l-7 14q5 101 22 101l-8 15v36q0 16 8 29q-8 14 -8 21h8l-8 15v50l-7 37 q13 0 22 65l-15 7q15 78 15 101l-7 14l21 44h-14v7l22 51q0 7 -8 7l8 86v8q0 16 -8 29q8 12 8 28h-65q-8 0 -8 8q-14 -8 -21 -8q-22 8 -22 15l-36 -7q-16 0 -29 7q-65 -7 -123 -22q-28 0 -322 44q0 7 -7 7q-13 -7 -29 -7q-51 19 -87 65l7 36v14l-7 15q14 7 22 7v7 q-31 0 -37 80h8q-22 47 -22 85z" />
<glyph unicode="u" horiz-adv-x="2214" d="M55 793v8q0 7 8 7l-8 16q0 8 8 8q-8 15 -8 23q0 12 16 70q-16 0 -16 15v8l16 23q-16 0 -16 16q17 0 31 23q-31 84 -31 132l16 8q-8 15 -8 23l8 16q-8 13 -8 31h15v7q-23 0 -23 16q12 0 47 70l-8 15v31h23q0 16 -15 16q0 -8 -8 -8l-8 16q0 30 39 62v7l-16 -7q0 15 -31 38 l16 8l-8 16v7q2 16 16 16l-8 16q0 7 8 7l-8 16v15q5 47 23 47q0 -8 8 -8q0 8 8 23h-31v62q0 18 7 32q-15 40 -15 77q59 23 85 23q0 -7 8 -7q0 18 116 38l16 -7q193 38 217 54h39q122 0 163 -16q2 16 15 16v-8l16 8l15 -8q14 8 31 8v-23h8q26 0 39 7q101 -15 101 -23v-15 l15 7q34 0 47 -77v-8q-28 -225 -39 -225q0 -8 8 -8l-8 -93v-23q0 -8 -8 -8l8 -15q0 -69 -23 -101q15 -3 15 -16q-7 -15 -7 -23q7 0 7 -8q-15 -2 -15 -15q26 0 39 -109h-8l8 -16q0 -7 -8 -7q15 -202 85 -202l24 -31l-8 -16h8q7 0 7 8q31 -6 31 -15l16 7q15 -2 15 -15 q100 0 163 124q30 0 62 124q0 9 47 55h-31v15l31 8v8l-16 23v23q26 23 47 117q-15 50 -15 69q20 39 54 39v8q-47 0 -47 70h8l-8 15v8l16 23l-8 47q16 36 16 70q-16 0 -16 15v8q2 16 16 16q-24 61 -24 77q64 39 86 39h108q21 0 47 15q79 -7 124 -7l16 7q13 -7 31 -7h54l23 15 q0 -15 148 -31q31 16 54 16l8 -16q0 -8 -8 -8q0 -23 23 -23q0 -15 -15 -15l-16 7q0 -11 -23 -23q0 8 -8 8q0 -7 -23 -62q15 -3 15 -16q-15 -31 -15 -54q0 -71 23 -194v-124q0 -8 -8 -8l8 -16v-62l8 -54h-8l8 -15q0 -8 -8 -8l8 -39v-8q0 -8 -8 -8q0 -7 8 -7l-8 -39v-8 q0 -21 16 -46l-8 -16q15 -81 15 -124l-15 -8l8 -15v-8q0 -8 -8 -8l8 -15q0 -122 -86 -326q-10 0 -39 -109q-111 -240 -147 -240q0 -30 -54 -39q0 -24 -132 -55q-30 -13 -210 -54l-39 8q0 -27 -186 -39l-15 8l-303 -39q-13 8 -31 8q-32 0 -85 -8q-93 8 -93 16q-15 -8 -24 -8 q-23 8 -23 15l-15 -7l-32 23l-7 -16q-93 16 -93 31l-16 -7q-101 0 -264 124l-23 31l-16 -8q-54 51 -54 93q0 8 8 8q0 23 -23 23v16q2 15 15 15q0 48 -62 186q16 31 16 55q-16 0 -16 15v8l8 39q-11 0 -23 23h23l-8 16v38q0 8 8 8q-11 44 -23 62v8l7 16q-11 0 -23 23z" />
<glyph unicode="v" horiz-adv-x="1922" d="M0 1835v8q0 16 64 24q8 0 8 -8q13 0 312 32v-8l16 8q8 0 8 -8l16 8h40q8 0 8 -8q16 8 24 8q42 -8 48 -8l16 8q62 0 120 -264q12 0 24 -24q-8 0 -8 -8q16 0 24 -48v-32q18 0 56 -128q-8 0 -8 -8q13 -10 112 -304q-8 0 -8 -8h8q16 8 24 8q0 -8 8 -8v16q-8 15 -8 24 q61 112 72 112l-8 16q0 41 41 64h8v-16h8v16l-33 24q0 17 49 120q0 8 -8 8q0 96 40 96q0 16 -16 16q0 32 40 32v8h-24v8q0 8 8 8q-16 40 -16 56q8 0 40 72q-16 0 -16 16v16l16 24v8l-8 48q5 48 32 48l40 -8q0 16 24 16q162 0 256 -16l40 24h8l120 -40q8 0 8 8 q141 -8 200 -24q0 8 8 8l16 -24q43 32 120 40q27 0 48 -56q8 0 8 -8l-64 -88q8 -16 8 -24l-32 -24l8 -16v-32q-10 0 -56 -56h-8l16 -40q-27 -24 -48 -24l8 -16v-24q-48 -104 -56 -104l8 -16v-8q0 -12 -24 -24l8 -16v-8q-24 0 -128 -224q-64 -90 -64 -96q0 -46 -56 -105 l8 -16q-16 -59 -56 -80l8 -16v-8q-41 -40 -48 -120q-11 0 -32 -40l8 -16q-12 0 -24 -24q8 0 8 -8l-16 -8l8 -16q-16 -48 -40 -48l8 -16l-56 -144l8 -16q-48 -57 -80 -152q-16 0 -104 -104q-16 -8 -24 -8q0 8 -8 8q0 -11 -24 -24h-8l-16 8q0 -24 -73 -24q-15 8 -24 8 q0 -14 -40 -24q-15 8 -24 8l-16 -8q-14 8 -32 8h-16l16 -24q-87 0 -152 -32l-16 8q-149 -48 -176 -48h-8q-104 52 -104 144q8 0 8 8q-39 26 -56 80l8 48l-32 104q8 0 8 8q-45 77 -64 240q-64 170 -64 248h8l-8 16l8 16l-64 321l8 16q-16 0 -24 88q-8 0 -8 8v40q0 8 8 8 q-24 66 -48 200q8 0 8 8q-18 5 -48 120l8 16q-36 75 -48 184q-8 0 -8 8z" />
<glyph unicode="w" horiz-adv-x="2372" d="M0 1827h8l-8 16q27 39 86 39h86q8 0 8 -8l368 86l15 -7q13 9 79 15v-8l15 8h32q54 -2 54 -15l16 7h8q75 -59 172 -360q36 -83 47 -94l-8 -15q35 -41 71 -180q15 0 15 -16h24v39q86 149 172 149h8q75 0 148 -141q47 -36 47 -55q45 55 55 55v31q2 40 16 40l-8 15q0 8 8 8 l-8 16v8l8 15q-8 0 -8 8q14 0 31 78q-23 0 -23 16v8h16l-8 39q31 12 31 23l-8 39h8q-8 40 -16 40q8 44 47 101l-8 16l8 47h-15v16q4 0 31 7l-8 16v8q0 8 8 8l-8 15q0 8 8 8l-8 16q0 19 102 39q211 -75 211 -94l16 8q62 -31 227 -71q0 -7 47 -15q8 0 8 8q125 0 125 -86 q11 0 23 -24v-8h-15l7 -15v-40q0 -7 -7 -7l7 -16q-21 -63 -54 -110q7 -15 7 -23q-14 0 -23 -70l8 -16q-8 -24 -16 -24l8 -15q-39 -126 -39 -157q11 0 23 -23v-8q-65 -50 -94 -227q-62 -194 -62 -227q-17 0 -47 -149q-11 0 -24 -23l8 -16q-18 -55 -31 -55l8 -15v-8l-63 -227 q8 0 8 -8l-16 -8l8 -15q0 -16 -16 -16l8 -16l-31 -94l8 -15q0 -22 -39 -78q-8 0 -8 7q-59 -15 -110 -15h-8q-7 0 -7 8l-16 -8l-39 8l-16 -8q-8 0 -8 8l-47 -8l-47 8q-82 -16 -101 -16v8l-16 -8h-8q-123 0 -219 219q-31 43 -31 70q-46 0 -118 -187h-7v-39q-71 -102 -133 -102 q0 15 -16 15h-8v-15h-8q-8 0 -8 8q-16 -8 -86 -16l-47 8l-54 -24q-8 0 -8 8q-162 -39 -196 -39v8l-15 -8q-94 0 -94 55q0 50 -24 70l16 24q-16 0 -55 101v40q0 7 8 7q-8 24 -16 24l8 16v7q-47 0 -63 110q8 0 8 8q-39 37 -39 101q8 0 8 8h-24q0 39 32 39v16h-8l-24 -16v24h24 q-8 15 -8 23l-23 -15l-8 15h8q-24 40 -24 55h8q-31 94 -47 118v15l8 16q-16 0 -16 16v7q0 8 8 8q-10 57 -31 78q15 26 15 40q-20 0 -31 70l8 16q-8 56 -16 70l16 8q-24 34 -39 117h8l-8 16l15 31q-31 0 -31 24l16 39h-24v8q16 0 16 7q-24 29 -39 134h15v7l-23 39l8 32 q-16 25 -16 47l8 15q-10 0 -31 47v24q0 15 31 15q-36 34 -39 94h8q-16 26 -16 47z" />
<glyph unicode="x" horiz-adv-x="2169" d="M0 21v31q170 263 433 705q61 72 86 131q0 41 -171 217q0 37 -139 201q-116 186 -194 186v8q0 8 8 8l-8 54v23q0 25 117 62q100 68 100 77q0 19 124 93q40 62 116 62l16 -8q15 8 23 8l178 -186q74 -111 217 -216l38 -16q109 43 109 124q0 18 77 124q0 49 124 255 q0 62 101 70l31 -8q15 8 23 8q31 -8 54 -8v8l333 -54v8l15 -8q136 -8 163 -8l23 -31v-23q-110 -125 -178 -333q-70 -267 -116 -333q0 -18 -70 -193q-10 -7 -46 -124q0 -34 217 -209q212 -306 410 -550v-23q0 -46 -217 -46l-31 7l-542 -131h-7q-54 0 -171 232 q-59 116 -131 186h-16q-39 -57 -77 -178q-23 0 -124 -217q-26 -26 -93 -54l-46 7l-55 -7q-28 15 -62 15h-23q-25 0 -85 -46q-42 85 -93 85q-38 -8 -38 -16q-47 16 -47 24l-15 -8h-124q-43 0 -109 -8q-11 8 -46 8v-8q-44 23 -62 23z" />
<glyph unicode="y" horiz-adv-x="1877" d="M-66 1717q16 55 97 55q22 -13 49 -13q181 31 242 67q0 12 61 18v-6l140 37q105 0 169 -207q44 -92 170 -242h13q48 61 66 200q31 34 55 200q5 0 42 91q193 61 322 61q12 -6 18 -6q20 12 37 12h6q24 0 24 -6l42 6h116q261 0 261 -55q30 -51 30 -72q0 -53 -91 -231v-24 q-26 0 -158 -237q-24 -85 -42 -85l6 -12q-31 -106 -61 -170q-16 -74 -85 -176q0 -36 -79 -79q-81 -80 -97 -212q0 -7 61 -619q-63 -36 -176 -36h-37q-6 0 -6 -7l-12 7q-66 -19 -194 -31q-12 6 -18 6q-52 -17 -55 -24q-127 18 -127 61v18q0 63 18 230l-6 25l12 109 q-6 8 -12 85l6 12q-22 243 -79 243q0 10 -54 42q-82 73 -195 134q-49 110 -133 212q-110 124 -213 322q-51 61 -72 127q-43 45 -61 170z" />
<glyph unicode="z" d="M-31 1312q17 33 23 57l-6 12l17 34q-5 0 -5 6q10 1 62 120q9 0 18 17q-6 0 -6 6q8 0 34 80h6q-6 11 -6 17q23 51 40 137h12l-6 11q0 57 108 80q75 35 252 63h11l12 -6q0 6 5 6v-6l57 23q32 -5 46 -5q19 11 34 11q18 -6 18 -11l11 5q59 -5 69 -5l40 11q0 -7 40 -23h17 l17 12v-6l11 6q59 -35 103 -35l12 6l28 -11q6 0 6 5q74 -5 74 -11q11 6 17 6q21 -12 126 -29l11 6q52 -14 52 -17l11 5l17 -11q11 6 18 6q0 -12 91 -29q80 -25 80 -63v-17q-15 -63 -34 -63l5 -11q-69 -95 -114 -212q-46 -62 -68 -125q-9 0 -103 -172q-7 -20 -35 -45 q0 -43 -62 -120q0 -18 -52 -92l-74 -126q-40 -43 -40 -62q-19 -53 -46 -80v-6q6 -10 6 -23q0 -8 -34 -34l-12 5q-23 -70 -23 -74h6q51 9 69 23q5 0 5 -6l206 46q0 6 34 17l23 -6q21 0 80 12q6 0 6 -6l28 6h12q6 0 6 -6l11 6q40 -6 69 -6q11 6 17 6l5 -12q6 0 6 6l40 -6h23 q56 18 63 18q0 -12 45 -18q0 -17 23 -17q17 0 17 29h12q17 0 23 -46q-6 0 -6 -6q6 0 6 -5h-12v-12q21 0 40 -63h6q-6 -57 -11 -57l5 -11q-18 -91 -34 -91l6 -29v-11l-12 -18q6 -11 6 -17q-9 0 -17 -23l6 -22q0 -30 -155 -46q0 -6 -11 -6q0 6 -6 6q0 -22 -165 -40h-12v-12 l-17 12q-23 -29 -46 -29q0 12 -11 12v-12h-6l-17 12q0 -20 -97 -40q0 5 -6 5q0 -11 -11 -11l-12 6q-21 -12 -45 -12q0 6 -6 6q0 -11 -69 -29v6l-23 -11v11h-5q0 -17 -35 -17q0 6 -5 6v-6l-12 6h-5l5 -40l-17 -12h-6l-22 17h-6v-11q-34 6 -34 17l-12 -6h-11l-12 6 q0 -11 -11 -11q-6 0 -6 5q-7 -5 -28 -5v5h-12q0 -19 -28 -28q0 11 -12 11q0 -7 -51 -23q0 -5 -6 -5t-6 5l-23 -11q-10 6 -22 6q0 -14 -40 -17q0 5 -6 5q-6 -17 -34 -17q-6 0 -17 6q-10 -6 -23 -6v6q-32 -8 -46 -17h-17q-13 0 -23 5q-10 -5 -23 -5l-11 5q0 -11 -12 -11 q-86 34 -131 86q-67 69 -126 183v5l29 46l-6 11q20 0 86 223q-6 11 -6 17q14 12 23 12v34l40 46l-6 11q7 28 23 46q-6 0 -6 6q7 0 35 68l11 6l-6 11l12 23h-6q11 34 40 52q0 10 17 51h6l11 -6v6l-5 11q7 29 17 29l-6 11q21 17 40 86h11l-5 12q8 0 28 68q29 40 52 137 q16 29 22 29q-5 22 -17 40l-11 -6q-11 6 -17 6q0 -12 -17 -12q-144 19 -177 29q-6 0 -6 -6q-74 4 -74 17l-58 -5h-17q-5 0 -5 5q-66 -28 -98 -28v6l-11 -6q-40 21 -40 51z" />
<glyph unicode="{" horiz-adv-x="2295" />
<glyph unicode="|" horiz-adv-x="2600" />
<glyph unicode="}" horiz-adv-x="2982" />
<glyph unicode="~" horiz-adv-x="906" />
<glyph unicode="&#x25fc;" horiz-adv-x="2035" d="M0 0v2035h2035v-2035h-2035z" />
</font>
</defs>
</svg>
